<?xml version="1.0" encoding="UTF-8"?>
<svg version="1.1" xmlns="http://www.w3.org/2000/svg" width="500" height="500">
<path d="M0 0 C0 0.66 0 1.32 0 2 C0.515625 2.0825 1.03125 2.165 1.5625 2.25 C5.04455732 3.32140225 7.87200885 5.13523605 11 7 C11 7.66 11 8.32 11 9 C11.57621094 9.25136719 12.15242187 9.50273437 12.74609375 9.76171875 C18.23034627 12.77473097 23.3425155 18.35284545 26 24 C26 24.66 26 25.32 26 26 C26.66 26 27.32 26 28 26 C36.47967046 43.67560736 42.32686537 62.17473333 48.04443359 80.89379883 C48.92539704 83.75749273 49.8326727 86.61137885 50.74609375 89.46484375 C55.74470631 105.45112309 58.57582342 121.46456393 61 138 C61.40089844 137.11441406 61.80179687 136.22882813 62.21484375 135.31640625 C62.78791939 134.06458023 63.36224679 132.81332686 63.9375 131.5625 C64.4013208 130.55183472 64.4013208 130.55183472 64.87451172 129.52075195 C66.90275865 125.16728267 69.1023917 120.96460004 71.45947266 116.78125 C84.12942924 94.02097608 85.14134186 69.74961474 78.4375 44.69140625 C76.82341393 39.17478463 74.63191284 34.10053182 72 29 C71.29307353 27.01387326 70.60077008 25.02077207 70 23 C69.34 23 68.68 23 68 23 C67.195625 22.071875 67.195625 22.071875 66.375 21.125 C63.17562172 18.26239838 60.28461328 17.22550596 56 17 C53.14537605 17.64662752 50.635759 18.74674998 48 20 C47.01 20.391875 46.02 20.78375 45 21.1875 C44.34 21.455625 43.68 21.72375 43 22 C42.67 21.01 42.34 20.02 42 19 C41.01 18.67 40.02 18.34 39 18 C39.33 16.35 39.66 14.7 40 13 C40.66 13 41.32 13 42 13 C42 12.34 42 11.68 42 11 C42.66 11 43.32 11 44 11 C44 10.34 44 9.68 44 9 C44.66 9 45.32 9 46 9 C46.33 8.01 46.66 7.02 47 6 C58.85161023 -3.14476098 71.5400987 -4.90584587 86 -5 C87.30130859 -5.01933594 87.30130859 -5.01933594 88.62890625 -5.0390625 C97.23785042 -4.61433281 106.44574131 0.0611296 114 4 C114 4.66 114 5.32 114 6 C114.7425 6.268125 115.485 6.53625 116.25 6.8125 C118.89061949 7.95276751 120.85552844 9.09380306 123 11 C123 11.66 123 12.32 123 13 C123.66 13 124.32 13 125 13 C126.6354808 14.90412475 128.13794613 16.79800671 129.625 18.8125 C130.04523438 19.35970703 130.46546875 19.90691406 130.8984375 20.47070312 C134 24.62458147 134 24.62458147 134 28 C134.66 28 135.32 28 136 28 C144.11026262 45.20647874 149.64758233 63.6702682 154.82421875 81.94140625 C155.64412467 84.82411931 156.53098024 87.67698401 157.45703125 90.52734375 C162.00958265 104.71591194 167.0319748 120.80587664 166.99267578 135.79321289 C166.74070849 137.97562717 166.74070849 137.97562717 168 139 C168.27972656 138.22398437 168.55945313 137.44796875 168.84765625 136.6484375 C172.01834661 128.10490528 175.79869997 120.07569775 180 112 C180.66 112 181.32 112 182 112 C182.12503906 111.278125 182.25007813 110.55625 182.37890625 109.8125 C182.9911554 107.040051 183.87555238 104.62882128 184.9375 102 C192.21005783 82.13930572 190.54331554 57.51598006 183 38 C182.01508906 36.32437229 181.01555372 34.65723518 180 33 C179.67515625 32.18273437 179.3503125 31.36546875 179.015625 30.5234375 C176.42154271 24.07814074 172.14262709 18.12686015 167.5625 12.9375 C165 10 165 10 165 8 C164.484375 7.773125 163.96875 7.54625 163.4375 7.3125 C160.10452995 5.51782382 156.85296329 3.50034985 154 1 C154 0.34 154 -0.32 154 -1 C153.01 -1.33 152.02 -1.66 151 -2 C151 -2.66 151 -3.32 151 -4 C178.72 -4 206.44 -4 235 -4 C235 11.09085838 235 11.09085838 233.3125 18.75 C233.13388428 19.5948999 232.95526855 20.4397998 232.77124023 21.31030273 C230.29311959 32.68495103 227.34780899 43.83995304 222.23828125 54.34375 C220.87753414 57.26270279 219.78589368 60.22298866 218.6875 63.25 C216.03518709 70.27279078 212.58792317 76.72841205 208.95361328 83.27783203 C207.61517522 85.6949703 206.31076234 88.13026798 205 90.5625 C200.36889279 99.00893673 195.72261919 107.44197074 190.4375 115.5 C179.09265375 133.2504397 171.97972929 153.60146648 169.875 174.5625 C169.74544922 175.78936523 169.74544922 175.78936523 169.61328125 177.04101562 C169.40424459 179.02686394 169.20144923 181.01336766 169 183 C166.03 183 163.06 183 160 183 C159.96261719 182.23816406 159.92523438 181.47632813 159.88671875 180.69140625 C159.22627865 170.3186117 156.8795935 161.69326036 151 153 C150.34 152.67 149.68 152.34 149 152 C149 151.34 149 150.68 149 150 C148.278125 149.731875 147.55625 149.46375 146.8125 149.1875 C144 148 144 148 141.98046875 146.6171875 C137.69547199 144.2921696 133.19132845 143.19906081 128.5 141.9375 C126.6347511 141.42821264 124.77014418 140.91656704 122.90625 140.40234375 C122.08447266 140.18054443 121.26269531 139.95874512 120.41601562 139.73022461 C117.87405041 138.96193258 115.45085183 138.01946052 113 137 C113 136.34 113 135.68 113 135 C112.2575 134.7525 111.515 134.505 110.75 134.25 C107.75026545 132.8864843 106.07922733 131.54127785 104 129 C104 128.01 104 127.02 104 126 C103.34 126 102.68 126 102 126 C101.03976175 123.14646179 100.08175987 120.29220445 99.125 117.4375 C98.85558594 116.63763672 98.58617187 115.83777344 98.30859375 115.01367188 C96.75429443 110.36972877 95.30516823 105.72014724 94 101 C91.55414765 103.28474831 89.72324343 105.71370338 87.875 108.5 C87.09769531 109.66015625 87.09769531 109.66015625 86.3046875 110.84375 C84.85998542 113.05244085 84.85998542 113.05244085 84 116 C83.34 116 82.68 116 82 116 C81.690625 117.1446875 81.690625 117.1446875 81.375 118.3125 C80.20364496 121.45386125 78.92419243 123.93744703 77.25 126.8125 C67.62071744 144.11695643 64.71844544 163.66240585 62 183 C55.84765625 183.09765625 55.84765625 183.09765625 54 183 C52.27843661 181.27843661 52.63225513 178.99131206 52.4050293 176.67919922 C51.38052392 166.41574802 49.25816651 158.64017527 42 151 C41.34 150.67 40.68 150.34 40 150 C40 149.34 40 148.68 40 148 C39.4745459 147.87923096 38.9490918 147.75846191 38.40771484 147.6340332 C33.40491688 146.31662636 28.53201613 144.54219582 23.63769531 142.87182617 C22.30073989 142.41725484 20.96252241 141.96637791 19.62304688 141.51928711 C17.67538858 140.86902829 15.73197714 140.20724849 13.7890625 139.54296875 C12.63100098 139.15133545 11.47293945 138.75970215 10.27978516 138.35620117 C6.81636904 136.92406804 3.97741085 135.27270991 1 133 C1 132.34 1 131.68 1 131 C0.34 131 -0.32 131 -1 131 C-4.46230706 125.4575717 -6.73378398 120.23963588 -8.2265625 113.87109375 C-8.97924116 110.86811736 -8.97924116 110.86811736 -10.34375 107.56640625 C-12.71872092 101.37384089 -14.21974502 94.91311352 -15.875 88.5 C-18.62165849 77.88248219 -21.72324635 67.48561168 -25 57 C-25.33 98.58 -25.66 140.16 -26 183 C-46.46 183 -66.92 183 -88 183 C-88 160.9903646 -86.19811471 146.95847142 -73 130 C-72.33871094 129.11054688 -71.67742187 128.22109375 -70.99609375 127.3046875 C-67.47386485 122.6132845 -67.47386485 122.6132845 -66 121 C-65.34 121 -64.68 121 -64 121 C-63.34 119.35 -62.68 117.7 -62 116 C-61.34 116 -60.68 116 -60 116 C-59.67 114.68 -59.34 113.36 -59 112 C-58.34 112 -57.68 112 -57 112 C-56.73960937 111.13375 -56.47921875 110.2675 -56.2109375 109.375 C-54.98726913 105.96451784 -53.45017507 103.12431715 -51.625 100 C-47.89796302 93.21091603 -45.86993949 86.47975797 -44 79 C-43.46050539 77.12437388 -42.91898611 75.24932838 -42.375 73.375 C-40.0634979 64.77871111 -38.95333725 56.00713346 -37.875 47.1875 C-37.78726318 46.48222168 -37.69952637 45.77694336 -37.60913086 45.05029297 C-37.09572834 40.65813703 -36.91927956 36.41079574 -37 32 C-39.71358031 39.70848921 -42.14640088 47.40456651 -44.19262695 55.31713867 C-48.28592299 71.09061671 -53.62424219 85.08908717 -67.30078125 95.00390625 C-69 96 -69 96 -71 96 C-71 96.66 -71 97.32 -71 98 C-73.59988552 99.50787377 -76.20440197 101.00645461 -78.8125 102.5 C-79.91948242 103.14388672 -79.91948242 103.14388672 -81.04882812 103.80078125 C-81.76103516 104.20683594 -82.47324219 104.61289063 -83.20703125 105.03125 C-83.8616333 105.40830078 -84.51623535 105.78535156 -85.19067383 106.17382812 C-87 107 -87 107 -90 107 C-90 107.66 -90 108.32 -90 109 C-91.03125 109.556875 -92.0625 110.11375 -93.125 110.6875 C-97.19802358 113.0137594 -101.85371001 115.70742002 -104 120 C-104.66 120 -105.32 120 -106 120 C-106.13535156 120.57621094 -106.27070313 121.15242188 -106.41015625 121.74609375 C-106.97633337 123.90956525 -107.67899375 125.95990495 -108.4375 128.0625 C-110.21024535 133.27645691 -111.13754518 138.57160789 -112 144 C-114.64 144 -117.28 144 -120 144 C-120.09796875 143.24976563 -120.1959375 142.49953125 -120.296875 141.7265625 C-121.92820058 130.56042019 -124.62470852 121.90082915 -133 114 C-133.66 113.67 -134.32 113.34 -135 113 C-135 112.34 -135 111.68 -135 111 C-135.84884766 110.83564453 -135.84884766 110.83564453 -136.71484375 110.66796875 C-139.33254327 109.90279504 -141.25336344 108.76189214 -143.5625 107.3125 C-147.1687669 105.08509986 -150.80595574 103.02518886 -154.5625 101.0625 C-162.93968606 96.51353437 -170.40760777 90.82215633 -176 83 C-176 82.34 -176 81.68 -176 81 C-176.66 81 -177.32 81 -178 81 C-181.19983818 74.99942818 -183.44647934 69.05590339 -185.4375 62.5625 C-185.7360791 61.60762695 -186.0346582 60.65275391 -186.34228516 59.66894531 C-188.46756562 52.83662965 -190.51901903 45.98220672 -192.48999023 39.10375977 C-193.5248607 35.46953237 -193.5248607 35.46953237 -195 32 C-194.39766163 41.39964874 -193.37856081 50.6831494 -192 60 C-191.91024902 60.65983887 -191.82049805 61.31967773 -191.72802734 61.99951172 C-189.61740946 77.35046807 -185.25288782 92.58347888 -177.1640625 105.90625 C-176.0261822 107.95290719 -175.44713801 109.71231716 -175 112 C-174.34 112 -173.68 112 -173 112 C-172.67 113.32 -172.34 114.64 -172 116 C-171.34 116 -170.68 116 -170 116 C-169.34 117.65 -168.68 119.3 -168 121 C-167.34 121 -166.68 121 -166 121 C-166 121.66 -166 122.32 -166 123 C-165.34 123 -164.68 123 -164 123 C-162.98648336 124.65848177 -161.98879205 126.32665961 -161 128 C-160.401875 128.5775 -159.80375 129.155 -159.1875 129.75 C-144.72461912 144.62610605 -144 163.03052818 -144 183 C-164.13 183 -184.26 183 -205 183 C-205 121.29 -205 59.58 -205 -4 C-182.54819277 -4 -182.54819277 -4 -175.5625 -3.25 C-174.73322998 -3.16202148 -173.90395996 -3.07404297 -173.04956055 -2.98339844 C-160.14962383 -1.45820838 -148.64224451 2.96384509 -140 13 C-140 13.66 -140 14.32 -140 15 C-139.34 15 -138.68 15 -138 15 C-133.26631592 23.84693384 -129.30664432 32.2213967 -126.79296875 41.96875 C-126.15414263 44.41076512 -125.43558505 46.66351246 -124.5 49 C-122.19139051 54.84090816 -120.68273859 60.95712902 -119 67 C-118.44505859 68.82337891 -118.44505859 68.82337891 -117.87890625 70.68359375 C-117 74 -117 74 -117 78 C-116.34 78 -115.68 78 -115 78 C-114.88140625 77.01 -114.7628125 76.02 -114.640625 75 C-114.04837011 70.87492398 -112.95901807 66.98166869 -111.75 63 C-111.41947632 61.89350098 -111.41947632 61.89350098 -111.08227539 60.76464844 C-109.23925575 54.65396209 -107.24023569 48.60336178 -105.1796875 42.5625 C-104.04821738 39.14561011 -103.05009919 35.71067814 -102.0625 32.25 C-100.18301401 26.00825024 -97.34973598 20.57172752 -94 15 C-93.34 15 -92.68 15 -92 15 C-91.731875 14.40058594 -91.46375 13.80117187 -91.1875 13.18359375 C-87.55697743 6.50773153 -79.8152918 2.69873821 -73 0 C-67.36469315 -1.61092451 -61.88779195 -2.50109189 -56.0625 -3.0625 C-55.23766113 -3.14411377 -54.41282227 -3.22572754 -53.56298828 -3.30981445 C-51.04290354 -3.55169436 -48.52202269 -3.77930429 -46 -4 C-45.25443848 -4.06606445 -44.50887695 -4.13212891 -43.74072266 -4.20019531 C-28.71195779 -5.47157239 -14.16854427 -5.86943549 0 0 Z " fill="#0361DE" transform="translate(241,134)"/>
<path d="M0 0 C0.33 0 0.66 0 1 0 C1.02947599 4.24998498 1.04695643 8.49994303 1.0625 12.75 C1.07087891 13.93722656 1.07925781 15.12445313 1.08789062 16.34765625 C1.10639781 23.12128672 0.86394529 29.75043405 0.11889648 36.48535156 C0.0024791 38.94756739 0.13137072 40.69883161 1 43 C1.66 43.33 2.32 43.66 3 44 C2.67 43.01 2.34 42.02 2 41 C4.97 40.505 4.97 40.505 8 40 C6.23570801 44.97209562 3.6060834 49.43438061 1 54 C0.34 54 -0.32 54 -1 54 C-1.309375 55.1446875 -1.309375 55.1446875 -1.625 56.3125 C-2.84136174 59.57456102 -4.22966878 62.29519026 -5.9375 65.3125 C-8.62886606 70.1161607 -10.44375274 74.72605096 -12 80 C-12.33 80 -12.66 80 -13 80 C-13 77.36 -13 74.72 -13 72 C-12.34 72 -11.68 72 -11 72 C-11 69.69 -11 67.38 -11 65 C-13.50358872 65.48207356 -13.50358872 65.48207356 -16 67 C-17.22969878 70.51190809 -17.22969878 70.51190809 -18 74 C-18.99 74.495 -18.99 74.495 -20 75 C-19.35096954 70.19341208 -17.40133727 66.25282603 -15.3125 61.9375 C-14.95381836 61.18162598 -14.59513672 60.42575195 -14.22558594 59.64697266 C-12.16716549 55.33125498 -9.99583437 51.09670911 -7.75 46.875 C-0.29147629 31.75472305 -0.21803988 16.54283583 0 0 Z " fill="#2A76D9" transform="translate(324,196)"/>
<path d="M0 0 C0.33 0 0.66 0 1 0 C2.02575676 5.27823181 1.80488532 9.21948164 0.5625 14.4375 C0.13130859 16.29181641 0.13130859 16.29181641 -0.30859375 18.18359375 C-0.53675781 19.11300781 -0.76492188 20.04242188 -1 21 C-1.66 21 -2.32 21 -3 21 C-2.67 21.99 -2.34 22.98 -2 24 C-1.01 23.34 -0.02 22.68 1 22 C4.1875 21.875 4.1875 21.875 7 22 C5.65851914 25.67107688 3.99234938 28.70014932 1.8125 31.9375 C-1.77019193 37.44645098 -4.66484674 43.12590722 -7.51953125 49.03125 C-9 52 -9 52 -11 55 C-11.19362037 50.15949065 -10.74524582 46.51710683 -9 42 C-8.67 41.01 -8.34 40.02 -8 39 C-8.66 38.67 -9.32 38.34 -10 38 C-10 39.32 -10 40.64 -10 42 C-10.66 42 -11.32 42 -12 42 C-13.04214691 46.61507774 -13.04214691 46.61507774 -12 51 C-13.485 51.495 -13.485 51.495 -15 52 C-15.33 52.66 -15.66 53.32 -16 54 C-16.66 54 -17.32 54 -18 54 C-18.12375 54.7425 -18.2475 55.485 -18.375 56.25 C-18.95486701 58.80141485 -19.73708739 60.7267573 -21 63 C-21.66 63 -22.32 63 -23 63 C-23 60.36 -23 57.72 -23 55 C-22.34 55.33 -21.68 55.66 -21 56 C-20.72027344 55.22398437 -20.44054687 54.44796875 -20.15234375 53.6484375 C-16.98165339 45.10490528 -13.20130003 37.07569775 -9 29 C-8.34 29 -7.68 29 -7 29 C-6.81244141 27.9171875 -6.81244141 27.9171875 -6.62109375 26.8125 C-6.0088446 24.040051 -5.12444762 21.62882128 -4.0625 19 C-1.73257504 12.78969092 -0.79286716 6.56201896 0 0 Z " fill="#0760D6" transform="translate(430,217)"/>
<path d="M0 0 C-0.4149108 1.68793258 -0.83209186 3.37530702 -1.25 5.0625 C-1.52199219 6.16464844 -1.79398437 7.26679688 -2.07421875 8.40234375 C-2.68587846 10.77929984 -3.33381449 13.14724752 -4.01953125 15.50390625 C-6.84154414 25.30168135 -8.11760311 34.86404623 -9 45 C-11.97 45 -14.94 45 -18 45 C-18.03738281 44.23816406 -18.07476562 43.47632813 -18.11328125 42.69140625 C-18.77372135 32.3186117 -21.1204065 23.69326036 -27 15 C-27.66 14.67 -28.32 14.34 -29 14 C-29 13.34 -29 12.68 -29 12 C-31.475 11.01 -31.475 11.01 -34 10 C-32.68 9.67 -31.36 9.34 -30 9 C-30 9.66 -30 10.32 -30 11 C-29.0925 11.165 -28.185 11.33 -27.25 11.5 C-23.20759326 13.36572619 -22.46268607 15.11570305 -20.6640625 19.02734375 C-20 21 -20 21 -20 24 C-19.34 24 -18.68 24 -18 24 C-17.67 25.32 -17.34 26.64 -17 28 C-16.5875 27.484375 -16.175 26.96875 -15.75 26.4375 C-15.1725 25.963125 -14.595 25.48875 -14 25 C-11.8125 25.3125 -11.8125 25.3125 -10 26 C-10 25.01 -10 24.02 -10 23 C-9.34 23 -8.68 23 -8 23 C-7.67 19.7 -7.34 16.4 -7 13 C-6.67 13 -6.34 13 -6 13 C-5.96261719 12.22914063 -5.92523438 11.45828125 -5.88671875 10.6640625 C-5.82097656 9.66117187 -5.75523437 8.65828125 -5.6875 7.625 C-5.62949219 6.62726563 -5.57148438 5.62953125 -5.51171875 4.6015625 C-5.34285156 3.74304688 -5.17398437 2.88453125 -5 2 C-2 0 -2 0 0 0 Z " fill="#0862DA" transform="translate(419,272)"/>
<path d="M0 0 C27.72 0 55.44 0 84 0 C84 14.625 84 14.625 82.5 21.3125 C82.2215625 22.58738281 81.943125 23.86226562 81.65625 25.17578125 C81.4396875 26.10777344 81.223125 27.03976563 81 28 C80.67 28 80.34 28 80 28 C80.13842295 24.04137069 80.28699006 20.08318673 80.4375 16.125 C80.47681641 14.99707031 80.51613281 13.86914062 80.55664062 12.70703125 C80.59853516 11.63066406 80.64042969 10.55429688 80.68359375 9.4453125 C80.72025146 8.45031738 80.75690918 7.45532227 80.79467773 6.43017578 C81 4 81 4 82 2 C57.25 2.33 32.5 2.66 7 3 C9.36350698 3 11.72669722 2.94094324 14.08984375 2.90234375 C16 3 16 3 18 4 C18 4.66 18 5.32 18 6 C16.02 6 14.04 6 12 6 C12.33 7.65 12.66 9.3 13 11 C13.99 11.33 14.98 11.66 16 12 C15.34 12.66 14.68 13.32 14 14 C14 13.34 14 12.68 14 12 C13.484375 11.773125 12.96875 11.54625 12.4375 11.3125 C9.10452995 9.51782382 5.85296329 7.50034985 3 5 C3 4.34 3 3.68 3 3 C2.01 2.67 1.02 2.34 0 2 C0 1.34 0 0.68 0 0 Z " fill="#6EA2DA" transform="translate(392,130)"/>
<path d="M0 0 C0.66 0 1.32 0 2 0 C2.33 0.66 2.66 1.32 3 2 C3.99 2.66 4.98 3.32 6 4 C5.67 4.66 5.34 5.32 5 6 C4.83329727 9.04173894 4.83329727 9.04173894 5 12 C5.33 12.33 5.66 12.66 6 13 C6.07179964 14.51928038 6.08392007 16.04167482 6.0625 17.5625 C6.05347656 18.38878906 6.04445312 19.21507812 6.03515625 20.06640625 C6.02355469 20.70449219 6.01195312 21.34257812 6 22 C5.67 22 5.34 22 5 22 C3.68 17.38 2.36 12.76 1 8 C0.67 49.58 0.34 91.16 0 134 C-1.32 133.67 -2.64 133.34 -4 133 C-3.34 133 -2.68 133 -2 133 C-1.99576806 132.32062913 -1.99153612 131.64125826 -1.98717594 130.94130039 C-1.88400918 114.43410069 -1.7753927 97.92694685 -1.66066074 81.41982365 C-1.60531029 73.43720548 -1.55182536 65.45458284 -1.50268555 57.47192383 C-1.45986597 50.51673397 -1.4135937 43.56157727 -1.36312145 36.60643858 C-1.33650249 32.92150021 -1.31164906 29.2365685 -1.29092598 25.55159187 C-1.26776498 21.44458235 -1.23689778 17.33766634 -1.20532227 13.23071289 C-1.1995668 12.00001068 -1.19381134 10.76930847 -1.18788147 9.50131226 C-1.17809265 8.38926926 -1.16830383 7.27722626 -1.15821838 6.13148499 C-1.14853956 4.67274759 -1.14853956 4.67274759 -1.1386652 3.18454075 C-1 1 -1 1 0 0 Z " fill="#4475B8" transform="translate(215,183)"/>
<path d="M0 0 C1.28317658 2.1134673 2.01559731 3.50088598 1.9375 6 C0.58379462 8.88790481 -1.40028432 10.22458441 -4 12 C-4.66 12 -5.32 12 -6 12 C-6 14.64 -6 17.28 -6 20 C-5.01 20.33 -4.02 20.66 -3 21 C-3 20.01 -3 19.02 -3 18 C-2.34 18 -1.68 18 -1 18 C-1 16.02 -1 14.04 -1 12 C0.65 11.67 2.3 11.34 4 11 C4 10.01 4 9.02 4 8 C4.66 8.33 5.32 8.66 6 9 C5.67 9.99 5.34 10.98 5 12 C4.34 12 3.68 12 3 12 C2.690625 13.1446875 2.690625 13.1446875 2.375 14.3125 C1.15863826 17.57456102 -0.22966878 20.29519026 -1.9375 23.3125 C-4.62886606 28.1161607 -6.44375274 32.72605096 -8 38 C-8.33 38 -8.66 38 -9 38 C-9 35.36 -9 32.72 -9 30 C-8.34 30 -7.68 30 -7 30 C-7 27.69 -7 25.38 -7 23 C-9.50358872 23.48207356 -9.50358872 23.48207356 -12 25 C-13.22969878 28.51190809 -13.22969878 28.51190809 -14 32 C-14.99 32.495 -14.99 32.495 -16 33 C-15.34930717 28.13894177 -13.35554083 24.11813272 -11.25 19.75 C-10.89164062 18.99726807 -10.53328125 18.24453613 -10.1640625 17.46899414 C-7.63277736 12.19643191 -4.94218697 7.05688386 -2 2 C-1.34 2 -0.68 2 0 2 C0 1.34 0 0.68 0 0 Z " fill="#1667D3" transform="translate(320,238)"/>
<path d="M0 0 C0.33 0 0.66 0 1 0 C2.02575676 5.27823181 1.80488532 9.21948164 0.5625 14.4375 C0.27503906 15.67371094 -0.01242187 16.90992188 -0.30859375 18.18359375 C-0.53675781 19.11300781 -0.76492188 20.04242188 -1 21 C-1.66 21 -2.32 21 -3 21 C-2.67 21.99 -2.34 22.98 -2 24 C-1.01 23.34 -0.02 22.68 1 22 C4.1875 21.875 4.1875 21.875 7 22 C5.59434539 25.85331189 3.78799023 29.12136565 1.5625 32.5625 C0.96566406 33.49191406 0.36882812 34.42132813 -0.24609375 35.37890625 C-1.76409649 37.64745823 -3.33600812 39.83731942 -5 42 C-5 40.02 -5 38.04 -5 36 C-5.99 36 -6.98 36 -8 36 C-7.505 35.071875 -7.505 35.071875 -7 34.125 C-5.85806765 32.08981656 -5.85806765 32.08981656 -6 30 C-6.99 30.33 -7.98 30.66 -9 31 C-9 30.34 -9 29.68 -9 29 C-8.34 29 -7.68 29 -7 29 C-6.87496094 28.278125 -6.74992187 27.55625 -6.62109375 26.8125 C-6.0088446 24.040051 -5.12444762 21.62882128 -4.0625 19 C-1.73257504 12.78969092 -0.79286716 6.56201896 0 0 Z " fill="#1C6EDE" transform="translate(430,217)"/>
<path d="M0 0 C0.7213916 0.03440186 1.4427832 0.06880371 2.18603516 0.10424805 C6.50290965 0.37835909 10.21541508 1.13329669 14.25 2.6875 C14.25 3.0175 14.25 3.3475 14.25 3.6875 C12.6721875 3.9040625 12.6721875 3.9040625 11.0625 4.125 C8.09539451 4.56276966 5.18205634 5.06554866 2.25 5.6875 C1.59 4.6975 0.93 3.7075 0.25 2.6875 C-2.58517408 2.40936583 -5.16987988 2.31554369 -8 2.375 C-8.75152344 2.37177734 -9.50304687 2.36855469 -10.27734375 2.36523438 C-14.77824937 2.40843678 -18.56456162 2.8482468 -22.75 4.6875 C-23.08 5.3475 -23.41 6.0075 -23.75 6.6875 C-27.53941507 9.36238122 -31.28582743 10.53012193 -35.75 11.6875 C-38.86785113 12.33394661 -38.86785113 12.33394661 -39.75 14.6875 C-40.74 14.3575 -41.73 14.0275 -42.75 13.6875 C-42.09 13.6875 -41.43 13.6875 -40.75 13.6875 C-40.42 12.6975 -40.09 11.7075 -39.75 10.6875 C-27.77337328 1.44627568 -14.63339759 -0.7305748 0 0 Z " fill="#4486D8" transform="translate(327.75,129.3125)"/>
<path d="M0 0 C-0.4149108 1.68793258 -0.83209186 3.37530702 -1.25 5.0625 C-1.52199219 6.16464844 -1.79398437 7.26679688 -2.07421875 8.40234375 C-2.68587846 10.77929984 -3.33381449 13.14724752 -4.01953125 15.50390625 C-6.84154414 25.30168135 -8.11760311 34.86404623 -9 45 C-11.97 45 -14.94 45 -18 45 C-18 41.7 -18 38.4 -18 35 C-17.67 35 -17.34 35 -17 35 C-17 37.64 -17 40.28 -17 43 C-14.69 43 -12.38 43 -10 43 C-10 36.4 -10 29.8 -10 23 C-9.34 23 -8.68 23 -8 23 C-7.67 19.7 -7.34 16.4 -7 13 C-6.67 13 -6.34 13 -6 13 C-5.96261719 12.22914063 -5.92523438 11.45828125 -5.88671875 10.6640625 C-5.82097656 9.66117187 -5.75523437 8.65828125 -5.6875 7.625 C-5.62949219 6.62726563 -5.57148438 5.62953125 -5.51171875 4.6015625 C-5.34285156 3.74304688 -5.17398437 2.88453125 -5 2 C-2 0 -2 0 0 0 Z " fill="#518ED9" transform="translate(419,272)"/>
<path d="M0 0 C0.33 0.99 0.66 1.98 1 3 C0.56042969 3.71542969 0.12085938 4.43085938 -0.33203125 5.16796875 C-2.47347666 8.80391236 -3.01329899 12.18992664 -3.6875 16.3125 C-3.81705078 17.05306641 -3.94660156 17.79363281 -4.08007812 18.55664062 C-4.3958706 20.36952334 -4.69920583 22.18456851 -5 24 C-7.64 24 -10.28 24 -13 24 C-13.10957031 23.24976563 -13.21914062 22.49953125 -13.33203125 21.7265625 C-14.38286056 14.94316028 -15.83798802 8.51486278 -18 2 C-17.34 2 -16.68 2 -16 2 C-16 2.99 -16 3.98 -16 5 C-15.01 5 -14.02 5 -13 5 C-13 7.31 -13 9.62 -13 12 C-12.01 12.33 -11.02 12.66 -10 13 C-10.33 15.97 -10.66 18.94 -11 22 C-9.35 22 -7.7 22 -6 22 C-6 16.39 -6 10.78 -6 5 C-5.01 5 -4.02 5 -3 5 C-3 4.01 -3 3.02 -3 2 C-2.01 2 -1.02 2 0 2 C0 1.34 0 0.68 0 0 Z " fill="#4E89D5" transform="translate(134,254)"/>
<path d="M0 0 C0.33 0.66 0.66 1.32 1 2 C1.66 2 2.32 2 3 2 C3.144375 3.134375 3.28875 4.26875 3.4375 5.4375 C3.61171478 8.80777201 3.61171478 8.80777201 5 10 C5.04092937 12.33297433 5.04241723 14.66705225 5 17 C7.475 17.99 7.475 17.99 10 19 C9.979375 20.216875 9.95875 21.43375 9.9375 22.6875 C9.93175884 25.91977322 10.21233685 28.84934741 11 32 C11.66 32 12.32 32 13 32 C13 34.64 13 37.28 13 40 C12.34 40 11.68 40 11 40 C10.83395264 39.40574219 10.66790527 38.81148437 10.49682617 38.19921875 C9.73065194 35.46512217 8.95911258 32.73256653 8.1875 30 C7.92646484 29.06542969 7.66542969 28.13085938 7.39648438 27.16796875 C5.83676987 21.66082866 4.08686409 16.32980345 2 11 C0.55904411 7.13217104 -0.2432596 4.13541328 0 0 Z " fill="#3377D3" transform="translate(46,161)"/>
<path d="M0 0 C0.33 0.66 0.66 1.32 1 2 C0.39738574 3.77307656 -0.28175066 5.5205312 -1 7.25 C-2.66237272 11.58241659 -3.48142423 14.43227528 -2 19 C-2.99 19.33 -3.98 19.66 -5 20 C-5.33 20.66 -5.66 21.32 -6 22 C-6.66 22 -7.32 22 -8 22 C-8.12375 22.7425 -8.2475 23.485 -8.375 24.25 C-8.95486701 26.80141485 -9.73708739 28.7267573 -11 31 C-11.66 31 -12.32 31 -13 31 C-13 28.36 -13 25.72 -13 23 C-12.34 23.33 -11.68 23.66 -11 24 C-10.70867187 23.18917969 -10.41734375 22.37835938 -10.1171875 21.54296875 C-7.31518606 13.97404033 -4.06522035 6.97094487 0 0 Z " fill="#307ADA" transform="translate(420,249)"/>
<path d="M0 0 C0.33 0.99 0.66 1.98 1 3 C1.66 3.33 2.32 3.66 3 4 C3 4.66 3 5.32 3 6 C4.65 6 6.3 6 8 6 C8 5.34 8 4.68 8 4 C10.10409639 3.97298592 12.20829178 3.95359777 14.3125 3.9375 C15.48425781 3.92589844 16.65601563 3.91429687 17.86328125 3.90234375 C21 4 21 4 24 5 C24 5.99 24 6.98 24 8 C23.3709375 7.82082031 22.741875 7.64164063 22.09375 7.45703125 C15.65829875 5.85786038 11.90163795 6.0818952 6 9 C5.01 9.391875 4.02 9.78375 3 10.1875 C2.34 10.455625 1.68 10.72375 1 11 C0.67 10.01 0.34 9.02 0 8 C-0.99 7.67 -1.98 7.34 -3 7 C-2.67 5.35 -2.34 3.7 -2 2 C-1.34 2 -0.68 2 0 2 C0 1.34 0 0.68 0 0 Z " fill="#2572D4" transform="translate(283,145)"/>
<path d="M0 0 C-0.99 1.485 -0.99 1.485 -2 3 C-4.625 3.1875 -4.625 3.1875 -7 3 C-6.814375 3.639375 -6.62875 4.27875 -6.4375 4.9375 C-6.293125 5.618125 -6.14875 6.29875 -6 7 C-7 8 -7 8 -10.8125 8.375 C-14.31311116 8.77093986 -16.48056542 9.37558897 -19 12 C-19 12.66 -19 13.32 -19 14 C-20.65 14.33 -22.3 14.66 -24 15 C-20.77286111 7.78548276 -14.23643404 4.34055276 -7.4296875 0.8828125 C-4.79337226 -0.07507696 -2.78259592 -0.1683421 0 0 Z " fill="#337AD7" transform="translate(173,134)"/>
<path d="M0 0 C0.66 0.33 1.32 0.66 2 1 C1.67 3.31 1.34 5.62 1 8 C1.66 8.33 2.32 8.66 3 9 C2.67 11.64 2.34 14.28 2 17 C2.66 17 3.32 17 4 17 C4.12375 18.134375 4.2475 19.26875 4.375 20.4375 C4.684375 22.2009375 4.684375 22.2009375 5 24 C5.66 24.33 6.32 24.66 7 25 C7 25.66 7 26.32 7 27 C6.34 27 5.68 27 5 27 C4.67 28.32 4.34 29.64 4 31 C3.20532858 28.18831904 2.41420767 25.37571498 1.625 22.5625 C1.40328125 21.77939453 1.1815625 20.99628906 0.953125 20.18945312 C-0.54812467 14.82469329 -1.83307516 9.44746691 -3 4 C-2.01 4 -1.02 4 0 4 C0 2.68 0 1.36 0 0 Z " fill="#387DD7" transform="translate(229,219)"/>
<path d="M0 0 C5.99335898 7.09097995 9.86206361 19.80297986 11 29 C10.06640625 31.3046875 10.06640625 31.3046875 9 33 C8.7525 31.88625 8.505 30.7725 8.25 29.625 C7.19789735 25.3636058 5.62748459 21.42419985 3.90234375 17.39453125 C3 15 3 15 2.50390625 12.26171875 C2.33761719 11.51535156 2.17132813 10.76898438 2 10 C1.34 9.67 0.68 9.34 0 9 C0 6.03 0 3.06 0 0 Z " fill="#3E7ED6" transform="translate(106,156)"/>
<path d="M0 0 C0.66 0 1.32 0 2 0 C2.185625 0.9590625 2.185625 0.9590625 2.375 1.9375 C2.684375 2.9584375 2.684375 2.9584375 3 4 C3.66 4.33 4.32 4.66 5 5 C5.33333333 6.66666667 5.66666667 8.33333333 6 10 C6.66 10.33 7.32 10.66 8 11 C7.67 11.99 7.34 12.98 7 14 C7.66 14 8.32 14 9 14 C8.95875 14.70125 8.9175 15.4025 8.875 16.125 C8.84555186 19.01121633 8.84555186 19.01121633 10 21.5625 C11.48767493 26.67638257 11.15408274 31.70982579 11 37 C10.67 37 10.34 37 10 37 C9.90203125 36.14019531 9.8040625 35.28039062 9.703125 34.39453125 C8.38662317 23.98735732 6.55282259 14.05018046 1 5 C0.3125 2.1875 0.3125 2.1875 0 0 Z " fill="#4C8CD6" transform="translate(420,162)"/>
<path d="M0 0 C4.91694235 7.37541353 6.61320532 16.25844026 7 25 C6.34 25 5.68 25 5 25 C4.67 22.69 4.34 20.38 4 18 C2.68 18.33 1.36 18.66 0 19 C-0.33 17.35 -0.66 15.7 -1 14 C-0.34 14 0.32 14 1 14 C0.67 9.38 0.34 4.76 0 0 Z " fill="#085FD3" transform="translate(386,188)"/>
<path d="M0 0 C0.66 0 1.32 0 2 0 C2.33 0.66 2.66 1.32 3 2 C3.99 2.66 4.98 3.32 6 4 C5.67 4.66 5.34 5.32 5 6 C4.83329727 9.04173894 4.83329727 9.04173894 5 12 C5.33 12.33 5.66 12.66 6 13 C6.07179964 14.51928038 6.08392007 16.04167482 6.0625 17.5625 C6.05347656 18.38878906 6.04445312 19.21507812 6.03515625 20.06640625 C6.02355469 20.70449219 6.01195312 21.34257812 6 22 C5.67 22 5.34 22 5 22 C3.68 17.38 2.36 12.76 1 8 C0.67 11.3 0.34 14.6 0 18 C-0.33 18 -0.66 18 -1 18 C-1.02684312 15.18743719 -1.04676188 12.37512759 -1.0625 9.5625 C-1.07087891 8.76005859 -1.07925781 7.95761719 -1.08789062 7.13085938 C-1.0965143 5.08704779 -1.0522815 3.04316098 -1 1 C-0.67 0.67 -0.34 0.34 0 0 Z " fill="#3278CF" transform="translate(215,183)"/>
<path d="M0 0 C0.66 0.33 1.32 0.66 2 1 C0.68 10.24 -0.64 19.48 -2 29 C-3.98 29 -5.96 29 -8 29 C-6.68 28.34 -5.36 27.68 -4 27 C-4.0825 25.700625 -4.165 24.40125 -4.25 23.0625 C-4.29558567 15.16478233 -1.97239123 7.5901841 0 0 Z " fill="#4282D5" transform="translate(305,288)"/>
<path d="M0 0 C0.66 0.33 1.32 0.66 2 1 C4.36350698 1 6.72669722 0.94094324 9.08984375 0.90234375 C11 1 11 1 13 2 C13 2.66 13 3.32 13 4 C11.02 4 9.04 4 7 4 C7.33 5.65 7.66 7.3 8 9 C8.99 9.33 9.98 9.66 11 10 C10.34 10.66 9.68 11.32 9 12 C9 11.34 9 10.68 9 10 C8.484375 9.773125 7.96875 9.54625 7.4375 9.3125 C4.07596873 7.5024447 1.07088856 5.26003596 -2 3 C-1 1 -1 1 0 0 Z " fill="#2F7AD9" transform="translate(397,132)"/>
<path d="M0 0 C1.98 0 3.96 0 6 0 C6.33 3.3 6.66 6.6 7 10 C4.69 10.33 2.38 10.66 0 11 C0 7.37 0 3.74 0 0 Z " fill="#0D5FD1" transform="translate(295,306)"/>
<path d="M0 0 C0.33 0 0.66 0 1 0 C1.12545384 7.52723059 1.12545384 7.52723059 0.50439453 9.86767578 C-0.37316262 13.57754228 -0.18450185 17.32934479 -0.1875 21.125 C-0.19974609 21.94871094 -0.21199219 22.77242188 -0.22460938 23.62109375 C-0.22983265 25.74870714 -0.1226232 27.87591677 0 30 C0.66 30.66 1.32 31.32 2 32 C0.35 32 -1.3 32 -3 32 C-3.34207192 20.82565057 -2.93465298 10.86520329 0 0 Z " fill="#5A8FDA" transform="translate(156,285)"/>
<path d="M0 0 C0.33 0 0.66 0 1 0 C2.02575676 5.27823181 1.80488532 9.21948164 0.5625 14.4375 C0.27503906 15.67371094 -0.01242187 16.90992188 -0.30859375 18.18359375 C-0.53675781 19.11300781 -0.76492188 20.04242188 -1 21 C-1.66 21 -2.32 21 -3 21 C-2.896875 21.721875 -2.79375 22.44375 -2.6875 23.1875 C-3.12449065 27.12041589 -5.10082197 28.46321923 -8 31 C-8.33 30.34 -8.66 29.68 -9 29 C-8.34 29 -7.68 29 -7 29 C-6.87496094 28.278125 -6.74992187 27.55625 -6.62109375 26.8125 C-6.0088446 24.040051 -5.12444762 21.62882128 -4.0625 19 C-1.73257504 12.78969092 -0.79286716 6.56201896 0 0 Z " fill="#4F8DD4" transform="translate(430,217)"/>
<path d="M0 0 C1.51630419 0.08794031 3.03197369 0.18739474 4.546875 0.296875 C5.29839844 0.33683594 6.04992187 0.37679687 6.82421875 0.41796875 C11.28150131 0.7057863 15.09330007 1.41363888 19.296875 3.046875 C19.296875 3.376875 19.296875 3.706875 19.296875 4.046875 C17.7190625 4.2634375 17.7190625 4.2634375 16.109375 4.484375 C13.14226951 4.92214466 10.22893134 5.42492366 7.296875 6.046875 C6.636875 5.056875 5.976875 4.066875 5.296875 3.046875 C2.6412022 2.46338748 2.6412022 2.46338748 -0.328125 2.359375 C-1.33101563 2.29363281 -2.33390625 2.22789062 -3.3671875 2.16015625 C-4.13804687 2.12277344 -4.90890625 2.08539063 -5.703125 2.046875 C-3.703125 0.046875 -3.703125 0.046875 0 0 Z " fill="#367AD4" transform="translate(322.703125,128.953125)"/>
<path d="M0 0 C1.6498275 0.42218816 3.29483665 0.86324425 4.9375 1.3125 C6.31228516 1.67794922 6.31228516 1.67794922 7.71484375 2.05078125 C8.46894531 2.36402344 9.22304688 2.67726563 10 3 C10.33 3.99 10.66 4.98 11 6 C12.19496094 6.03867187 12.19496094 6.03867187 13.4140625 6.078125 C19.81759882 6.42089337 24.07896378 6.76244103 29 11 C24.91108947 12.36297018 22.05376635 10.99354935 18.125 9.6875 C17.41730469 9.46126953 16.70960938 9.23503906 15.98046875 9.00195312 C12.26035163 7.80001584 8.60983014 6.50763494 5 5 C5 4.34 5 3.68 5 3 C2.525 2.01 2.525 2.01 0 1 C0 0.67 0 0.34 0 0 Z " fill="#5C93DA" transform="translate(349,266)"/>
<path d="M0 0 C1.32 0 2.64 0 4 0 C4 0.66 4 1.32 4 2 C4.9075 2.165 5.815 2.33 6.75 2.5 C10.79240674 4.36572619 11.53731393 6.11570305 13.3359375 10.02734375 C14 12 14 12 14 15 C14.66 15 15.32 15 16 15 C16 16.98 16 18.96 16 21 C15.34 21 14.68 21 14 21 C13.82984375 20.41992188 13.6596875 19.83984375 13.484375 19.2421875 C11.92132011 14.20382972 10.23912757 10.17951945 7 6 C6.34 5.67 5.68 5.34 5 5 C5 4.34 5 3.68 5 3 C2.525 2.01 2.525 2.01 0 1 C0 0.67 0 0.34 0 0 Z " fill="#548DD8" transform="translate(385,281)"/>
<path d="M0 0 C8.57142857 3.14285714 8.57142857 3.14285714 12 5 C12 5.66 12 6.32 12 7 C12.804375 7.28875 13.60875 7.5775 14.4375 7.875 C17 9 17 9 18 11 C15.525 10.505 15.525 10.505 13 10 C13 9.34 13 8.68 13 8 C11.02 8.33 9.04 8.66 7 9 C7 8.34 7 7.68 7 7 C6.360625 6.896875 5.72125 6.79375 5.0625 6.6875 C4.381875 6.460625 3.70125 6.23375 3 6 C2.67 5.01 2.34 4.02 2 3 C1.34 2.67 0.68 2.34 0 2 C0 1.34 0 0.68 0 0 Z " fill="#4285D8" transform="translate(343,133)"/>
<path d="M0 0 C0.66 0 1.32 0 2 0 C2 0.99 2 1.98 2 3 C2.99 3 3.98 3 5 3 C5 5.31 5 7.62 5 10 C5.99 10.33 6.98 10.66 8 11 C7.67 13.97 7.34 16.94 7 20 C8.65 20 10.3 20 12 20 C12 20.33 12 20.66 12 21 C9.69 21 7.38 21 5 21 C4.89042969 20.32195312 4.78085938 19.64390625 4.66796875 18.9453125 C3.56212481 12.4540985 2.03701908 6.26043863 0 0 Z " fill="#3474CB" transform="translate(116,256)"/>
<path d="M0 0 C1.98 0 3.96 0 6 0 C5.01 0.495 5.01 0.495 4 1 C4 1.66 4 2.32 4 3 C1.87767021 4.17176518 -0.24757791 5.33754785 -2.375 6.5 C-2.97828125 6.83386719 -3.5815625 7.16773438 -4.203125 7.51171875 C-8.7734375 10 -8.7734375 10 -11 10 C-10.67 8.35 -10.34 6.7 -10 5 C-8.72125 4.9175 -7.4425 4.835 -6.125 4.75 C-3.94666582 4.54130069 -3.94666582 4.54130069 -2 4 C-0.4100567 2.07935207 -0.4100567 2.07935207 0 0 Z " fill="#397DD4" transform="translate(166,229)"/>
<path d="M0 0 C2.2646501 2.86061065 4.00216901 5.73442599 5.625 9 C6.05039062 9.845625 6.47578125 10.69125 6.9140625 11.5625 C7.87514599 13.71975214 8.51987589 15.69540428 9 18 C9.66 18 10.32 18 11 18 C10.67 18.66 10.34 19.32 10 20 C9.34 20 8.68 20 8 20 C7.87625 19.071875 7.87625 19.071875 7.75 18.125 C6.76174558 15.32494581 5.59640015 15.25886068 3 14 C1.75 11.875 1.75 11.875 1 10 C1.33 9.67 1.66 9.34 2 9 C1.34 8.67 0.68 8.34 0 8 C0 5.36 0 2.72 0 0 Z " fill="#4D8CDD" transform="translate(57,228)"/>
<path d="M0 0 C2.67927341 4.01891012 2.15601248 6.24161923 2 11 C2.66 11 3.32 11 4 11 C4 13.64 4 16.28 4 19 C3.34 19 2.68 19 2 19 C1.29954544 17.08802961 0.615081 15.17019565 -0.0625 13.25 C-0.44535156 12.18265625 -0.82820313 11.1153125 -1.22265625 10.015625 C-1.99820255 7.00697303 -2.07641214 5.82942619 -1 3 C-0.67 2.01 -0.34 1.02 0 0 Z " fill="#3279D5" transform="translate(341,241)"/>
<path d="M0 0 C0.33 0.66 0.66 1.32 1 2 C3.52733235 2.65555119 3.52733235 2.65555119 6 3 C4.33333333 4.66666667 2.66666667 6.33333333 1 8 C0.113125 8.928125 -0.77375 9.85625 -1.6875 10.8125 C-4 13 -4 13 -6 13 C-6.33 11.68 -6.66 10.36 -7 9 C-5.35 8.67 -3.7 8.34 -2 8 C-1.7834375 6.576875 -1.7834375 6.576875 -1.5625 5.125 C-1 2 -1 2 0 0 Z " fill="#347CDA" transform="translate(141,241)"/>
<path d="M0 0 C0.66 0.33 1.32 0.66 2 1 C-1.63566563 7.68412752 -5.29224236 14.35556707 -9 21 C-9.33 21 -9.66 21 -10 21 C-10 19.35 -10 17.7 -10 16 C-9.34 16 -8.68 16 -8 16 C-8 15.01 -8 14.02 -8 13 C-7.34 13 -6.68 13 -6 13 C-5.67 10.69 -5.34 8.38 -5 6 C-4.34 6 -3.68 6 -3 6 C-2.690625 5.38125 -2.38125 4.7625 -2.0625 4.125 C-1.375 2.75 -0.6875 1.375 0 0 Z " fill="#4A87D5" transform="translate(447,218)"/>
<path d="M0 0 C0.65625 1.75 0.65625 1.75 1 4 C-1.84209227 9.86754534 -6.25995263 13.24477726 -12 16 C-10.51516897 12.76306836 -8.67292565 10.0674375 -6.5 7.25 C-5.58734375 6.05117188 -5.58734375 6.05117188 -4.65625 4.828125 C-4.1096875 4.22484375 -3.563125 3.6215625 -3 3 C-2.34 3 -1.68 3 -1 3 C-0.67 2.01 -0.34 1.02 0 0 Z " fill="#4F8BD9" transform="translate(178,252)"/>
<path d="M0 0 C0.66 0.33 1.32 0.66 2 1 C1.67 1.99 1.34 2.98 1 4 C0.34 4 -0.32 4 -1 4 C-1.226875 4.78375 -1.45375 5.5675 -1.6875 6.375 C-3.40660933 11.12301625 -5.68084721 15.52102552 -8 20 C-8.33 20 -8.66 20 -9 20 C-9 18.35 -9 16.7 -9 15 C-8.34 15 -7.68 15 -7 15 C-7 13.35 -7 11.7 -7 10 C-6.34 10 -5.68 10 -5 10 C-5 8.02 -5 6.04 -5 4 C-3.35 3.67 -1.7 3.34 0 3 C0 2.01 0 1.02 0 0 Z " fill="#4E89D9" transform="translate(324,246)"/>
<path d="M0 0 C0 2.31 0 4.62 0 7 C-0.66 7 -1.32 7 -2 7 C-2 7.99 -2 8.98 -2 10 C-3.32 9.67 -4.64 9.34 -6 9 C-5.4140625 2.84765625 -5.4140625 2.84765625 -5 1 C-3 0 -3 0 0 0 Z " fill="#0260DC" transform="translate(319,249)"/>
<path d="M0 0 C3.19250577 1.59625289 3.37202134 4.39641592 4.5 7.6875 C4.9228125 8.90824219 5.345625 10.12898437 5.78125 11.38671875 C6.1834375 12.57910156 6.585625 13.77148438 7 15 C7.3815625 16.09957031 7.763125 17.19914062 8.15625 18.33203125 C9 21 9 21 9 23 C8.34 23 7.68 23 7 23 C7 21.02 7 19.04 7 17 C6.01 16.67 5.02 16.34 4 16 C4 14.35 4 12.7 4 11 C3.34 11 2.68 11 2 11 C1.34 7.37 0.68 3.74 0 0 Z " fill="#5791D9" transform="translate(377,165)"/>
<path d="M0 0 C3.15835107 1.39750048 5.32272825 3.05198234 7.75 5.5 C8.67039062 6.41265625 8.67039062 6.41265625 9.609375 7.34375 C11 9 11 9 11 11 C10.01 11 9.02 11 8 11 C7.67 10.34 7.34 9.68 7 9 C6.01 9.33 5.02 9.66 4 10 C4 8.02 4 6.04 4 4 C2.35 3.67 0.7 3.34 -1 3 C-0.67 2.01 -0.34 1.02 0 0 Z " fill="#377AD4" transform="translate(253,144)"/>
<path d="M0 0 C0.33 0.99 0.66 1.98 1 3 C1.99 3 2.98 3 4 3 C4.33 5.31 4.66 7.62 5 10 C5.99 10.33 6.98 10.66 8 11 C8 12.65 8 14.3 8 16 C5.55624008 13.71035107 3.68459771 11.27347809 1.8125 8.5 C1.28269531 7.7265625 0.75289063 6.953125 0.20703125 6.15625 C-1 4 -1 4 -1 1 C-0.67 0.67 -0.34 0.34 0 0 Z " fill="#4585D8" transform="translate(412,146)"/>
<path d="M0 0 C0.33 0 0.66 0 1 0 C1.84023188 4.35332736 2.10770995 8.44442519 2.0625 12.875 C2.05347656 14.02742187 2.04445313 15.17984375 2.03515625 16.3671875 C2.02355469 17.23601562 2.01195312 18.10484375 2 19 C1.34 19 0.68 19 0 19 C-0.39163671 16.77369595 -0.76267785 14.54376235 -1.125 12.3125 C-1.33382812 11.07113281 -1.54265625 9.82976562 -1.7578125 8.55078125 C-2.00252483 4.96298276 -1.62715667 3.15186273 0 0 Z " fill="#3C7BD3" transform="translate(45,173)"/>
<path d="M0 0 C1.98 0.99 1.98 0.99 4 2 C4 2.66 4 3.32 4 4 C4.66 4 5.32 4 6 4 C6 5.98 6 7.96 6 10 C6.66 10 7.32 10 8 10 C8 12.31 8 14.62 8 17 C7.34 17 6.68 17 6 17 C5.81824219 16.25234375 5.63648438 15.5046875 5.44921875 14.734375 C5.07216797 13.25710938 5.07216797 13.25710938 4.6875 11.75 C4.44386719 10.77546875 4.20023437 9.8009375 3.94921875 8.796875 C2.99969888 5.99911276 1.81191444 4.29407655 0 2 C0 1.34 0 0.68 0 0 Z " fill="#5692DD" transform="translate(287,288)"/>
<path d="M0 0 C0.309375 0.639375 0.61875 1.27875 0.9375 1.9375 C1.8345163 3.93610821 1.8345163 3.93610821 3 5 C3.07179964 6.51928038 3.08392007 8.04167482 3.0625 9.5625 C3.05347656 10.38878906 3.04445313 11.21507812 3.03515625 12.06640625 C3.01775391 13.02353516 3.01775391 13.02353516 3 14 C0.03 13.505 0.03 13.505 -3 13 C-2.690625 12.34 -2.38125 11.68 -2.0625 11 C-0.75039745 7.29523985 -0.39735865 3.90736009 0 0 Z " fill="#1E6ED2" transform="translate(91,279)"/>
<path d="M0 0 C2.10409639 -0.02701408 4.20829178 -0.04640223 6.3125 -0.0625 C7.48425781 -0.07410156 8.65601563 -0.08570313 9.86328125 -0.09765625 C13 0 13 0 16 1 C16 1.99 16 2.98 16 4 C15.3709375 3.83242187 14.741875 3.66484375 14.09375 3.4921875 C7.95979429 2.03260165 3.98602524 2.00465825 -2 4 C-1.34 2.68 -0.68 1.36 0 0 Z " fill="#528BD8" transform="translate(291,149)"/>
<path d="M0 0 C2.37599719 3.56399578 3.15731805 7.08381174 4.125 11.1875 C4.39763672 12.31188477 4.39763672 12.31188477 4.67578125 13.45898438 C5.12251686 15.30470781 5.5619694 17.15219132 6 19 C5.34 19 4.68 19 4 19 C1.72728002 15.59092003 1.15944018 12.93257881 0.3125 8.9375 C0.04050781 7.68839844 -0.23148437 6.43929687 -0.51171875 5.15234375 C-1 2 -1 2 0 0 Z " fill="#4B87D5" transform="translate(291,225)"/>
<path d="M0 0 C3.91401605 3.91401605 4.125 10.21493268 4.125 15.5625 C4.08375 16.696875 4.0425 17.83125 4 19 C1.94075996 15.43005111 1.16489056 11.82497266 0.3125 7.8125 C-0.09548828 5.93498047 -0.09548828 5.93498047 -0.51171875 4.01953125 C-0.67285156 3.02308594 -0.83398438 2.02664062 -1 1 C-0.67 0.67 -0.34 0.34 0 0 Z " fill="#4987D7" transform="translate(222,204)"/>
<path d="M0 0 C0.66 0 1.32 0 2 0 C2.99 5.94 3.98 11.88 5 18 C4.34 18.33 3.68 18.66 3 19 C3 16.69 3 14.38 3 12 C2.01 11.67 1.02 11.34 0 11 C0 7.37 0 3.74 0 0 Z " fill="#4785D3" transform="translate(403,249)"/>
<path d="M0 0 C1.76462683 3.08809695 2 4.23312136 2 8 C2.66 8 3.32 8 4 8 C4.33 6.68 4.66 5.36 5 4 C5 6.64 5 9.28 5 12 C2 12 2 12 0.25 10.5 C-1.62783409 6.74433183 -0.74906333 4.08579998 0 0 Z " fill="#5796E0" transform="translate(122,204)"/>
<path d="M0 0 C0.66 0 1.32 0 2 0 C1.35731596 4.45143264 0.29333357 8.58881647 -1.0625 12.875 C-1.42472656 14.02742187 -1.78695312 15.17984375 -2.16015625 16.3671875 C-2.43730469 17.23601562 -2.71445313 18.10484375 -3 19 C-3.33 19 -3.66 19 -4 19 C-4 17.02 -4 15.04 -4 13 C-3.34 13 -2.68 13 -2 13 C-2.04125 11.96875 -2.0825 10.9375 -2.125 9.875 C-2.00424851 6.13170373 -1.35127982 3.46265453 0 0 Z " fill="#6498DA" transform="translate(194,189)"/>
<path d="M0 0 C3.77907446 5.66861169 6.28483813 12.20596221 7 19 C6.01 18.34 5.02 17.68 4 17 C3.8125 13.875 3.8125 13.875 4 11 C3.34 11 2.68 11 2 11 C0.19769832 7.17010894 -0.19622241 4.21878192 0 0 Z " fill="#5D94DB" transform="translate(272,168)"/>
<path d="M0 0 C0.33 0 0.66 0 1 0 C1.67155349 2.26949102 2.3373963 4.5403961 3 6.8125 C3.37125 8.07707031 3.7425 9.34164062 4.125 10.64453125 C5 14 5 14 5 17 C4.01 17 3.02 17 2 17 C0.4943096 11.19233704 -0.21824777 6.0018137 0 0 Z " fill="#4785D5" transform="translate(117,187)"/>
<path d="M0 0 C0.66 0 1.32 0 2 0 C0.75971762 6.17222879 -0.89603589 12.06682122 -3 18 C-3.33 18 -3.66 18 -4 18 C-3.65226572 11.36906706 -3.03910346 5.946072 0 0 Z " fill="#568CD4" transform="translate(468,167)"/>
<path d="M0 0 C0.33 0.66 0.66 1.32 1 2 C1.66 2 2.32 2 3 2 C3.144375 3.134375 3.28875 4.26875 3.4375 5.4375 C3.61171478 8.80777201 3.61171478 8.80777201 5 10 C5.23192865 11.51469448 5.41215238 13.03754562 5.5625 14.5625 C5.64628906 15.38878906 5.73007812 16.21507812 5.81640625 17.06640625 C5.90728516 18.02353516 5.90728516 18.02353516 6 19 C4 18 4 18 2.9296875 15.234375 C2.58164062 14.08453125 2.23359375 12.9346875 1.875 11.75 C1.52179687 10.61046875 1.16859375 9.4709375 0.8046875 8.296875 C0.0875759 5.3588061 -0.16917814 3.00009239 0 0 Z " fill="#568DDA" transform="translate(46,161)"/>
<path d="M0 0 C0.33 0 0.66 0 1 0 C1.05447047 1.41623216 1.09300508 2.83308191 1.125 4.25 C1.14820313 5.03890625 1.17140625 5.8278125 1.1953125 6.640625 C0.97767636 9.26966951 0.46290812 10.81048189 -1 13 C-1.99 13.33 -2.98 13.66 -4 14 C-3.00956295 9.16371695 -2.04301154 4.52381127 0 0 Z " fill="#518EDC" transform="translate(198,211)"/>
<path d="M0 0 C2 3 2 3 2 6 C2.99 6 3.98 6 5 6 C5.12375 6.969375 5.2475 7.93875 5.375 8.9375 C5.684375 10.4534375 5.684375 10.4534375 6 12 C6.66 12.33 7.32 12.66 8 13 C7.01 13 6.02 13 5 13 C4.34 11.35 3.68 9.7 3 8 C2.34 8 1.68 8 1 8 C-0.42944945 5.64561267 -1.08661261 4.51967567 -0.625 1.75 C-0.41875 1.1725 -0.2125 0.595 0 0 Z " fill="#4882D4" transform="translate(62,207)"/>
<path d="M0 0 C0.33 0 0.66 0 1 0 C1.0580476 3.27075883 1.09361165 6.54138524 1.125 9.8125 C1.14175781 10.74126953 1.15851563 11.67003906 1.17578125 12.62695312 C1.18222656 13.51962891 1.18867188 14.41230469 1.1953125 15.33203125 C1.20578613 16.15421143 1.21625977 16.9763916 1.22705078 17.82348633 C1 20 1 20 -1 23 C-2.19067752 17.78766344 -1.77438473 13.34254025 -1.0625 8.125 C-0.96259766 7.34125 -0.86269531 6.5575 -0.75976562 5.75 C-0.51421053 3.83233162 -0.25817071 1.91601075 0 0 Z " fill="#4A88D6" transform="translate(204,173)"/>
<path d="M0 0 C6.625 -0.125 6.625 -0.125 10 1 C10 1.99 10 2.98 10 4 C11.32 4 12.64 4 14 4 C14 4.99 14 5.98 14 7 C13.34 7 12.68 7 12 7 C12 6.34 12 5.68 12 5 C11.42765625 4.86722656 10.8553125 4.73445313 10.265625 4.59765625 C8.02349125 4.00619683 5.91420381 3.26711146 3.75 2.4375 C3.04359375 2.16808594 2.3371875 1.89867187 1.609375 1.62109375 C1.07828125 1.41613281 0.5471875 1.21117187 0 1 C0 0.67 0 0.34 0 0 Z " fill="#5390DB" transform="translate(269,277)"/>
<path d="M0 0 C0.99 0 1.98 0 3 0 C4.0169313 2.65498232 4.13022151 3.69155375 3.00390625 6.359375 C2.52824219 7.14828125 2.05257813 7.9371875 1.5625 8.75 C0.85287109 9.94882813 0.85287109 9.94882813 0.12890625 11.171875 C-0.24363281 11.77515625 -0.61617188 12.3784375 -1 13 C-1.93423645 9.98968256 -2.04449911 9.13349732 -1 6 C-0.34 6 0.32 6 1 6 C0.67 4.02 0.34 2.04 0 0 Z " fill="#4282D6" transform="translate(452,202)"/>
<path d="M0 0 C2.40001498 2.40001498 2.82759331 4.12917269 3.75 7.375 C4.03359375 8.33148438 4.3171875 9.28796875 4.609375 10.2734375 C5.0461239 13.32194482 4.65770135 14.46539866 3 17 C2.52581173 15.10324693 2.05223872 13.20633758 1.58203125 11.30859375 C1.19584475 9.77680704 0.79749748 8.24803206 0.38671875 6.72265625 C-0.11751614 4.82577261 -0.56356039 2.91361983 -1 1 C-0.67 0.67 -0.34 0.34 0 0 Z " fill="#4B86D3" transform="translate(112,172)"/>
<path d="M0 0 C1.60080151 4.00200378 0.29279692 7.04556236 -1 11 C-1.66 11 -2.32 11 -3 11 C-3 11.66 -3 12.32 -3 13 C-3.66 13 -4.32 13 -5 13 C-3.78184562 8.31479085 -2.30440013 4.29456388 0 0 Z " fill="#4887D7" transform="translate(162,272)"/>
<path d="M0 0 C2.00406482 3.00609722 3.03076258 5.59242695 4.1875 9 C4.55230469 10.051875 4.91710937 11.10375 5.29296875 12.1875 C6 15 6 15 5 18 C1.50404312 11.91026866 0.28688725 7.00004889 0 0 Z " fill="#5F99D8" transform="translate(386,188)"/>
<path d="M0 0 C5.75334215 2.03059135 8.39221586 4.08029436 12 9 C9.03 8.505 9.03 8.505 6 8 C6 6.68 6 5.36 6 4 C4.02 3.34 2.04 2.68 0 2 C0 1.34 0 0.68 0 0 Z " fill="#4586D6" transform="translate(87,137)"/>
<path d="M0 0 C0.33 0 0.66 0 1 0 C1.33 2.31 1.66 4.62 2 7 C2.66 6.67 3.32 6.34 4 6 C3.67 8.64 3.34 11.28 3 14 C2.01 14.33 1.02 14.66 0 15 C0 10.05 0 5.1 0 0 Z " fill="#5C9BDC" transform="translate(300,265)"/>
<path d="M0 0 C-1.875 4.75 -1.875 4.75 -3 7 C-4.65 6.67 -6.3 6.34 -8 6 C-8 6.66 -8 7.32 -8 8 C-8.66 7.67 -9.32 7.34 -10 7 C-3.24137931 0 -3.24137931 0 0 0 Z " fill="#186BDB" transform="translate(173,264)"/>
<path d="M0 0 C3.08089673 2.77280706 4.68775452 5.06326356 6 9 C3.525 8.01 3.525 8.01 1 7 C1 7.99 1 8.98 1 10 C0.34 10 -0.32 10 -1 10 C-0.67 6.7 -0.34 3.4 0 0 Z " fill="#387FDC" transform="translate(369,152)"/>
<path d="M0 0 C0.33 0 0.66 0 1 0 C2.11477625 6.67522647 2.26584133 10.99085195 -1 17 C-1.33 17 -1.66 17 -2 17 C-1.38273804 11.32644329 -0.72054048 5.66138945 0 0 Z " fill="#4A85D2" transform="translate(201,194)"/>
<path d="M0 0 C1.26937991 3.53324217 0.7575638 5.33100318 -0.8125 8.6875 C-1.16957031 9.47511719 -1.52664063 10.26273437 -1.89453125 11.07421875 C-3 13 -3 13 -5 14 C-4.34580901 8.93001981 -2.1453591 4.58009223 0 0 Z " fill="#5A91D8" transform="translate(309,257)"/>
<path d="M0 0 C2 1 2 1 2.8125 2.8125 C3 5 3 5 1.5625 7.25 C1.046875 7.8275 0.53125 8.405 0 9 C-2 8 -2 8 -3 7 C-1.125 2.25 -1.125 2.25 0 0 Z " fill="#4085DB" transform="translate(147,149)"/>
<path d="M0 0 C0.66 0 1.32 0 2 0 C2.33 0.99 2.66 1.98 3 3 C1.0625 5.6875 1.0625 5.6875 -1 8 C-2.32 6.02 -3.64 4.04 -5 2 C-3.68 2.33 -2.36 2.66 -1 3 C-0.67 2.01 -0.34 1.02 0 0 Z " fill="#2873DC" transform="translate(116,248)"/>
<path d="M0 0 C3.1875 -0.3125 3.1875 -0.3125 6 0 C5.01 0.495 5.01 0.495 4 1 C4 1.66 4 2.32 4 3 C1.625 4.6875 1.625 4.6875 -1 6 C-1.66 5.67 -2.32 5.34 -3 5 C-1.875 2.5 -1.875 2.5 0 0 Z " fill="#4588DB" transform="translate(166,229)"/>
<path d="M0 0 C1.35015859 4.05047576 0.62084998 6.7920168 0 11 C-0.66 11 -1.32 11 -2 11 C-2.33 12.65 -2.66 14.3 -3 16 C-4.31225809 12.06322574 -3.3393954 10.2205738 -2.0625 6.3125 C-1.68222656 5.13300781 -1.30195313 3.95351562 -0.91015625 2.73828125 C-0.60980469 1.83464844 -0.30945313 0.93101562 0 0 Z " fill="#6B9DDE" transform="translate(131,192)"/>
<path d="M0 0 C-1.1858237 3.37503669 -2.27573689 5.64722731 -5 8 C-5 7.34 -5 6.68 -5 6 C-5.66 5.67 -6.32 5.34 -7 5 C-6.34 5 -5.68 5 -5 5 C-5.33 3.68 -5.66 2.36 -6 1 C-3.92446352 0.4465236 -2.15634036 0 0 0 Z " fill="#3E80DA" transform="translate(332,236)"/>
<path d="M0 0 C0.66 0.33 1.32 0.66 2 1 C0.85079464 5.59682146 -0.09591658 8.12788877 -3 12 C-2.67 8.7 -2.34 5.4 -2 2 C-1.34 2 -0.68 2 0 2 C0 1.34 0 0.68 0 0 Z " fill="#4F8ADA" transform="translate(459,192)"/>
<path d="M0 0 C-0.66 2.64 -1.32 5.28 -2 8 C-2.66 8 -3.32 8 -4 8 C-4.33 6.02 -4.66 4.04 -5 2 C-2 0 -2 0 0 0 Z " fill="#3D82D7" transform="translate(419,272)"/>
<path d="M0 0 C0.66 0.33 1.32 0.66 2 1 C-0.475 6.94 -0.475 6.94 -3 13 C-3.33 13 -3.66 13 -4 13 C-4 11.02 -4 9.04 -4 7 C-3.34 7 -2.68 7 -2 7 C-2 5.35 -2 3.7 -2 2 C-1.34 2 -0.68 2 0 2 C0 1.34 0 0.68 0 0 Z " fill="#4A89D7" transform="translate(423,259)"/>
<path d="M0 0 C0.33 0 0.66 0 1 0 C1.16682272 4.92127034 1.24828052 8.50343896 -1 13 C-1.33 13 -1.66 13 -2 13 C-1.85769192 11.58297487 -1.71099254 10.1663904 -1.5625 8.75 C-1.48128906 7.96109375 -1.40007812 7.1721875 -1.31640625 6.359375 C-1.02365007 4.17635361 -0.57935581 2.1226818 0 0 Z " fill="#6598DC" transform="translate(156,285)"/>
<path d="M0 0 C1.62433191 2.50076998 2.07333427 3.58982529 1.5390625 6.578125 C1.23742187 7.45984375 0.93578125 8.3415625 0.625 9.25 C0.32851563 10.14203125 0.03203125 11.0340625 -0.2734375 11.953125 C-0.51320313 12.62859375 -0.75296875 13.3040625 -1 14 C-1.33 14 -1.66 14 -2 14 C-2 11.36 -2 8.72 -2 6 C-1.34 6 -0.68 6 0 6 C0 4.02 0 2.04 0 0 Z " fill="#3E7FD7" transform="translate(313,262)"/>
<path d="M0 0 C1.90318884 2.85478326 2.4619099 4.41941308 3.125 7.6875 C3.29257812 8.49574219 3.46015625 9.30398437 3.6328125 10.13671875 C3.75398438 10.75160156 3.87515625 11.36648437 4 12 C3.01 11.67 2.02 11.34 1 11 C-0.28317892 7.15046324 -0.06643637 4.05261865 0 0 Z " fill="#659AE1" transform="translate(52,213)"/>
<path d="M0 0 C3.875 1.75 3.875 1.75 5 4 C4.34 4 3.68 4 3 4 C3 5.32 3 6.64 3 8 C2.01 8 1.02 8 0 8 C0 5.36 0 2.72 0 0 Z " fill="#065ED3" transform="translate(226,215)"/>
<path d="M0 0 C0.33 0.66 0.66 1.32 1 2 C1.99 2.33 2.98 2.66 4 3 C4 6.3 4 9.6 4 13 C2.4005386 9.80107719 1.57404764 7.64537424 0.875 4.25 C0.70742188 3.45078125 0.53984375 2.6515625 0.3671875 1.828125 C0.24601562 1.22484375 0.12484375 0.6215625 0 0 Z " fill="#5D98DC" transform="translate(317,170)"/>
<path d="M0 0 C0.33 1.32 0.66 2.64 1 4 C0.34 4 -0.32 4 -1 4 C-1 5.65 -1 7.3 -1 9 C-1.66 9 -2.32 9 -3 9 C-3 9.66 -3 10.32 -3 11 C-3.66 11 -4.32 11 -5 11 C-3.55049545 7.2089881 -1.84827434 3.6125362 0 0 Z " fill="#5B91DB" transform="translate(315,246)"/>
<path d="M0 0 C0.33 0 0.66 0 1 0 C2.0070238 5.03511899 1.97387813 8.23947038 0 13 C-0.33 13 -0.66 13 -1 13 C-0.67 8.71 -0.34 4.42 0 0 Z " fill="#5E92DB" transform="translate(430,217)"/>
<path d="M0 0 C0.99 0 1.98 0 3 0 C1.73058503 3.91402949 0.48832306 5.79072873 -3 8 C-3 6.35 -3 4.7 -3 3 C-1.68 3 -0.36 3 1 3 C0.67 2.01 0.34 1.02 0 0 Z " fill="#5292D9" transform="translate(181,217)"/>
<path d="M0 0 C0.33 0 0.66 0 1 0 C1.27429625 5.39449293 1.36055646 8.51925805 -2 13 C-3.45047396 10.09905209 -2.45356803 8.44027404 -1.5625 5.375 C-1.27503906 4.37210938 -0.98757812 3.36921875 -0.69140625 2.3359375 C-0.46324219 1.56507813 -0.23507813 0.79421875 0 0 Z " fill="#5592D9" transform="translate(138,168)"/>
<path d="M0 0 C1.32 0.33 2.64 0.66 4 1 C4.1953125 3.05078125 4.390625 5.1015625 4.5859375 7.15234375 C4.72257812 7.76207031 4.85921875 8.37179688 5 9 C5.66 9.33 6.32 9.66 7 10 C6.01 10 5.02 10 4 10 C3.79503906 9.44570312 3.59007812 8.89140625 3.37890625 8.3203125 C3.10949219 7.59585938 2.84007812 6.87140625 2.5625 6.125 C2.29566406 5.40570313 2.02882813 4.68640625 1.75390625 3.9453125 C1.02083146 1.96351155 1.02083146 1.96351155 0 0 Z " fill="#5A96DA" transform="translate(311,158)"/>
<path d="M0 0 C1 3 1 3 0 6 C0.99 7.485 0.99 7.485 2 9 C1.01 9.495 1.01 9.495 0 10 C0 9.34 0 8.68 0 8 C-0.99 7.67 -1.98 7.34 -3 7 C-2.67 5.35 -2.34 3.7 -2 2 C-1.34 2 -0.68 2 0 2 C0 1.34 0 0.68 0 0 Z " fill="#558CD5" transform="translate(283,145)"/>
<path d="M0 0 C-2 3 -2 3 -4.1640625 3.51171875 C-5.38222656 3.59873047 -5.38222656 3.59873047 -6.625 3.6875 C-7.44226563 3.75324219 -8.25953125 3.81898438 -9.1015625 3.88671875 C-9.72804687 3.92410156 -10.35453125 3.96148437 -11 4 C-10 2 -10 2 -7.75 0.875 C-4.98386705 -0.00513321 -2.87951649 -0.1645438 0 0 Z " fill="#508AD9" transform="translate(173,134)"/>
<path d="M0 0 C0.33 0.66 0.66 1.32 1 2 C1.66 2 2.32 2 3 2 C3.66 3.65 4.32 5.3 5 7 C3.35 6.67 1.7 6.34 0 6 C-0.38218767 4.34385343 -0.71395102 2.67542976 -1 1 C-0.67 0.67 -0.34 0.34 0 0 Z " fill="#4285DE" transform="translate(68,248)"/>
<path d="M0 0 C0.66 0.66 1.32 1.32 2 2 C1.67 2.66 1.34 3.32 1 4 C1.66 4 2.32 4 3 4 C2.67 4.66 2.34 5.32 2 6 C0.02 5.01 -1.96 4.02 -4 3 C-4 2.34 -4 1.68 -4 1 C-2.125 0.375 -2.125 0.375 0 0 Z " fill="#3379D4" transform="translate(90,232)"/>
<path d="M0 0 C3.71599191 -0.20086443 4.77208445 -0.1519437 8 2 C7.67 2.99 7.34 3.98 7 5 C3.535 3.02 3.535 3.02 0 1 C0 0.67 0 0.34 0 0 Z " fill="#3579D3" transform="translate(77,228)"/>
<path d="M0 0 C1.98 0.99 1.98 0.99 4 2 C3.67 3.65 3.34 5.3 3 7 C2.01 7 1.02 7 0 7 C0 4.69 0 2.38 0 0 Z " fill="#2C73D5" transform="translate(52,178)"/>
<path d="M0 0 C1.65 0.33 3.3 0.66 5 1 C3.35 2.65 1.7 4.3 0 6 C-0.99 5.01 -1.98 4.02 -3 3 C-2.34 2.67 -1.68 2.34 -1 2 C-0.34 2.33 0.32 2.66 1 3 C0.67 2.01 0.34 1.02 0 0 Z " fill="#0B5ED3" transform="translate(313,153)"/>
<path d="M0 0 C1.45047396 2.90094791 0.45356803 4.55972596 -0.4375 7.625 C-0.72496094 8.62789063 -1.01242187 9.63078125 -1.30859375 10.6640625 C-1.53675781 11.43492187 -1.76492188 12.20578125 -2 13 C-2.33 13 -2.66 13 -3 13 C-3.27429625 7.60550707 -3.36055646 4.48074195 0 0 Z " fill="#5E9CDD" transform="translate(310,276)"/>
<path d="M0 0 C3.73884332 2.65654657 5.64978174 4.58110387 7 9 C3.46352496 7.32482761 2.2088437 6.50719183 0.6875 2.8125 C0.460625 1.884375 0.23375 0.95625 0 0 Z " fill="#5E95DB" transform="translate(77,259)"/>
<path d="M0 0 C0.33 0 0.66 0 1 0 C1 2.31 1 4.62 1 7 C0.34 7 -0.32 7 -1 7 C-1.33 7.99 -1.66 8.98 -2 10 C-3.39195915 5.82412255 -1.82323219 3.86525224 0 0 Z " fill="#528CD9" transform="translate(192,228)"/>
<path d="M0 0 C0.33 1.32 0.66 2.64 1 4 C0.34 4 -0.32 4 -1 4 C-1.66 4.99 -2.32 5.98 -3 7 C-4 6 -4 6 -4.0625 3.4375 C-4.041875 2.633125 -4.02125 1.82875 -4 1 C-2.68 0.67 -1.36 0.34 0 0 Z " fill="#075DD2" transform="translate(325,177)"/>
<path d="M0 0 C0.66 0 1.32 0 2 0 C1.46930939 3.82097239 0.50298434 6.06171403 -2 9 C-2 7.02 -2 5.04 -2 3 C-1.34 3 -0.68 3 0 3 C0 2.01 0 1.02 0 0 Z " fill="#4F8CD6" transform="translate(427,250)"/>
<path d="M0 0 C0.66 0 1.32 0 2 0 C1.67 2.64 1.34 5.28 1 8 C0.01 8 -0.98 8 -2 8 C-1.34 5.36 -0.68 2.72 0 0 Z " fill="#4382D6" transform="translate(428,230)"/>
<path d="M0 0 C0.6875 1.625 0.6875 1.625 1 4 C-0.4375 7.25 -0.4375 7.25 -2 10 C-2.33 10 -2.66 10 -3 10 C-2.67 7.69 -2.34 5.38 -2 3 C-1.34 3 -0.68 3 0 3 C0 2.01 0 1.02 0 0 Z " fill="#3677D0" transform="translate(189,205)"/>
<path d="M0 0 C0.66 0 1.32 0 2 0 C2 0.66 2 1.32 2 2 C2.598125 2.12375 3.19625 2.2475 3.8125 2.375 C6 3 6 3 9 5 C6.36 4.67 3.72 4.34 1 4 C0.67 2.68 0.34 1.36 0 0 Z " fill="#5692D6" transform="translate(239,134)"/>
<path d="M0 0 C2.64 0.33 5.28 0.66 8 1 C8 1.99 8 2.98 8 4 C2.25 2.25 2.25 2.25 0 0 Z " fill="#4786D7" transform="translate(245,268)"/>
<path d="M0 0 C0.99 0 1.98 0 3 0 C2.42415568 2.38564077 1.77772405 4.66682784 1 7 C0.34 7 -0.32 7 -1 7 C-1.33 6.01 -1.66 5.02 -2 4 C-1.34 4 -0.68 4 0 4 C0 2.68 0 1.36 0 0 Z " fill="#2275DE" transform="translate(241,258)"/>
<path d="M0 0 C0.33 0.66 0.66 1.32 1 2 C0.06421005 4.35981813 -0.93347808 6.69631264 -2 9 C-2.66 9 -3.32 9 -4 9 C-2.94124926 5.59687262 -1.99097846 2.98646769 0 0 Z " fill="#69A2E1" transform="translate(420,249)"/>
<path d="M0 0 C2.62386487 3.06117568 3 3.73173127 3 8 C2.01 8 1.02 8 0 8 C0 5.36 0 2.72 0 0 Z " fill="#3D82D9" transform="translate(57,228)"/>
<path d="M0 0 C0.99 0.33 1.98 0.66 3 1 C3 3.97 3 6.94 3 10 C2.67 10 2.34 10 2 10 C1.34 6.7 0.68 3.4 0 0 Z " fill="#619FE2" transform="translate(218,195)"/>
<path d="M0 0 C0.66 0 1.32 0 2 0 C3.61949011 2.57213134 4.04408751 3.67669159 3.625 6.75 C3.41875 7.4925 3.2125 8.235 3 9 C0.87491756 5.81237635 0.4979837 3.73487777 0 0 Z " fill="#4682D6" transform="translate(53,185)"/>
<path d="M0 0 C1.98 0.99 1.98 0.99 4 2 C3.67 4.31 3.34 6.62 3 9 C1.35173889 6.03312999 0.55728913 3.34373475 0 0 Z " fill="#0B5FCE" transform="translate(316,163)"/>
<path d="M0 0 C0.33 0.66 0.66 1.32 1 2 C1.99 2.33 2.98 2.66 4 3 C3.67 4.32 3.34 5.64 3 7 C1.68 6.01 0.36 5.02 -1 4 C-0.67 2.68 -0.34 1.36 0 0 Z " fill="#0A61D0" transform="translate(265,159)"/>
<path d="" fill="#FFFFFF" transform="translate(0,0)"/>
<path d="" fill="#FFFFFF" transform="translate(0,0)"/>
<path d="" fill="#FFFFFF" transform="translate(0,0)"/>
<path d="" fill="#FFFFFF" transform="translate(0,0)"/>
<path d="" fill="#FFFFFF" transform="translate(0,0)"/>
<path d="" fill="#FFFFFF" transform="translate(0,0)"/>
<path d="" fill="#FFFFFF" transform="translate(0,0)"/>
<path d="" fill="#FFFFFF" transform="translate(0,0)"/>
<path d="" fill="#FFFFFF" transform="translate(0,0)"/>
<path d="" fill="#FFFFFF" transform="translate(0,0)"/>
<path d="" fill="#FFFFFF" transform="translate(0,0)"/>
<path d="" fill="#FFFFFF" transform="translate(0,0)"/>
<path d="" fill="#FFFFFF" transform="translate(0,0)"/>
<path d="" fill="#FFFFFF" transform="translate(0,0)"/>
<path d="" fill="#FFFFFF" transform="translate(0,0)"/>
<path d="" fill="#FFFFFF" transform="translate(0,0)"/>
<path d="" fill="#FFFFFF" transform="translate(0,0)"/>
<path d="" fill="#FFFFFF" transform="translate(0,0)"/>
<path d="" fill="#FFFFFF" transform="translate(0,0)"/>
<path d="" fill="#FFFFFF" transform="translate(0,0)"/>
<path d="" fill="#FFFFFF" transform="translate(0,0)"/>
<path d="" fill="#FFFFFF" transform="translate(0,0)"/>
<path d="" fill="#FFFFFF" transform="translate(0,0)"/>
<path d="" fill="#FFFFFF" transform="translate(0,0)"/>
<path d="" fill="#FFFFFF" transform="translate(0,0)"/>
<path d="" fill="#FFFFFF" transform="translate(0,0)"/>
<path d="" fill="#FFFFFF" transform="translate(0,0)"/>
<path d="" fill="#FFFFFF" transform="translate(0,0)"/>
<path d="" fill="#FFFFFF" transform="translate(0,0)"/>
<path d="" fill="#FFFFFF" transform="translate(0,0)"/>
<path d="" fill="#FFFFFF" transform="translate(0,0)"/>
<path d="" fill="#FFFFFF" transform="translate(0,0)"/>
<path d="" fill="#FFFFFF" transform="translate(0,0)"/>
<path d="" fill="#FFFFFF" transform="translate(0,0)"/>
<path d="" fill="#FFFFFF" transform="translate(0,0)"/>
<path d="" fill="#FFFFFF" transform="translate(0,0)"/>
<path d="" fill="#FFFFFF" transform="translate(0,0)"/>
<path d="" fill="#FFFFFF" transform="translate(0,0)"/>
<path d="" fill="#FFFFFF" transform="translate(0,0)"/>
<path d="" fill="#FFFFFF" transform="translate(0,0)"/>
<path d="" fill="#FFFFFF" transform="translate(0,0)"/>
<path d="" fill="#FFFFFF" transform="translate(0,0)"/>
<path d="" fill="#FFFFFF" transform="translate(0,0)"/>
<path d="" fill="#FFFFFF" transform="translate(0,0)"/>
<path d="" fill="#FFFFFF" transform="translate(0,0)"/>
<path d="" fill="#FFFFFF" transform="translate(0,0)"/>
<path d="" fill="#FFFFFF" transform="translate(0,0)"/>
<path d="" fill="#FFFFFF" transform="translate(0,0)"/>
<path d="" fill="#FFFFFF" transform="translate(0,0)"/>
<path d="" fill="#FFFFFF" transform="translate(0,0)"/>
<path d="" fill="#FFFFFF" transform="translate(0,0)"/>
<path d="" fill="#FFFFFF" transform="translate(0,0)"/>
<path d="" fill="#FFFFFF" transform="translate(0,0)"/>
<path d="" fill="#FFFFFF" transform="translate(0,0)"/>
<path d="" fill="#FFFFFF" transform="translate(0,0)"/>
<path d="" fill="#FFFFFF" transform="translate(0,0)"/>
<path d="" fill="#FFFFFF" transform="translate(0,0)"/>
<path d="" fill="#FFFFFF" transform="translate(0,0)"/>
<path d="" fill="#FFFFFF" transform="translate(0,0)"/>
<path d="" fill="#FFFFFF" transform="translate(0,0)"/>
<path d="" fill="#FFFFFF" transform="translate(0,0)"/>
<path d="" fill="#FFFFFF" transform="translate(0,0)"/>
<path d="" fill="#FFFFFF" transform="translate(0,0)"/>
<path d="" fill="#FFFFFF" transform="translate(0,0)"/>
<path d="" fill="#FFFFFF" transform="translate(0,0)"/>
<path d="" fill="#FFFFFF" transform="translate(0,0)"/>
<path d="" fill="#FFFFFF" transform="translate(0,0)"/>
<path d="" fill="#FFFFFF" transform="translate(0,0)"/>
</svg>
