<svg version="1.2" xmlns="http://www.w3.org/2000/svg" viewBox="0 0 440 187" width="660" height="281">
	<style>
		.s0 { fill: #0361de } 
		.s1 { fill: #2a76d9 } 
		.s2 { fill: #0760d6 } 
		.s3 { fill: #0862da } 
		.s4 { fill: #6ea2da } 
		.s5 { fill: #4475b8 } 
		.s6 { fill: #1667d3 } 
		.s7 { fill: #1c6ede } 
		.s8 { fill: #4486d8 } 
		.s9 { fill: #518ed9 } 
		.s10 { fill: #4e89d5 } 
		.s11 { fill: #3377d3 } 
		.s12 { fill: #307ada } 
		.s13 { fill: #2572d4 } 
		.s14 { fill: #337ad7 } 
		.s15 { fill: #387dd7 } 
		.s16 { fill: #3e7ed6 } 
		.s17 { fill: #4c8cd6 } 
		.s18 { fill: #085fd3 } 
		.s19 { fill: #3278cf } 
		.s20 { fill: #4282d5 } 
		.s21 { fill: #2f7ad9 } 
		.s22 { fill: #0d5fd1 } 
		.s23 { fill: #5a8fda } 
		.s24 { fill: #4f8dd4 } 
		.s25 { fill: #367ad4 } 
		.s26 { fill: #5c93da } 
		.s27 { fill: #548dd8 } 
		.s28 { fill: #4285d8 } 
		.s29 { fill: #3474cb } 
		.s30 { fill: #397dd4 } 
		.s31 { fill: #4d8cdd } 
		.s32 { fill: #3279d5 } 
		.s33 { fill: #347cda } 
		.s34 { fill: #4a87d5 } 
		.s35 { fill: #4f8bd9 } 
		.s36 { fill: #4e89d9 } 
		.s37 { fill: #0260dc } 
		.s38 { fill: #5791d9 } 
		.s39 { fill: #377ad4 } 
		.s40 { fill: #4585d8 } 
		.s41 { fill: #3c7bd3 } 
		.s42 { fill: #5692dd } 
		.s43 { fill: #1e6ed2 } 
		.s44 { fill: #528bd8 } 
		.s45 { fill: #4b87d5 } 
		.s46 { fill: #4987d7 } 
		.s47 { fill: #4785d3 } 
		.s48 { fill: #5796e0 } 
		.s49 { fill: #6498da } 
		.s50 { fill: #5d94db } 
		.s51 { fill: #4785d5 } 
		.s52 { fill: #568cd4 } 
		.s53 { fill: #568dda } 
		.s54 { fill: #518edc } 
		.s55 { fill: #4882d4 } 
		.s56 { fill: #4a88d6 } 
		.s57 { fill: #5390db } 
		.s58 { fill: #4282d6 } 
		.s59 { fill: #4b86d3 } 
		.s60 { fill: #4887d7 } 
		.s61 { fill: #5f99d8 } 
		.s62 { fill: #4586d6 } 
		.s63 { fill: #5c9bdc } 
		.s64 { fill: #186bdb } 
		.s65 { fill: #387fdc } 
		.s66 { fill: #4a85d2 } 
		.s67 { fill: #5a91d8 } 
		.s68 { fill: #4085db } 
		.s69 { fill: #2873dc } 
		.s70 { fill: #4588db } 
		.s71 { fill: #6b9dde } 
		.s72 { fill: #3e80da } 
		.s73 { fill: #4f8ada } 
		.s74 { fill: #3d82d7 } 
		.s75 { fill: #4a89d7 } 
		.s76 { fill: #6598dc } 
		.s77 { fill: #3e7fd7 } 
		.s78 { fill: #659ae1 } 
		.s79 { fill: #065ed3 } 
		.s80 { fill: #5d98dc } 
		.s81 { fill: #5b91db } 
		.s82 { fill: #5e92db } 
		.s83 { fill: #5292d9 } 
		.s84 { fill: #5592d9 } 
		.s85 { fill: #5a96da } 
		.s86 { fill: #558cd5 } 
		.s87 { fill: #508ad9 } 
		.s88 { fill: #4285de } 
		.s89 { fill: #3379d4 } 
		.s90 { fill: #3579d3 } 
		.s91 { fill: #2c73d5 } 
		.s92 { fill: #0b5ed3 } 
		.s93 { fill: #5e9cdd } 
		.s94 { fill: #5e95db } 
		.s95 { fill: #528cd9 } 
		.s96 { fill: #075dd2 } 
		.s97 { fill: #4f8cd6 } 
		.s98 { fill: #4382d6 } 
		.s99 { fill: #3677d0 } 
		.s100 { fill: #5692d6 } 
		.s101 { fill: #4786d7 } 
		.s102 { fill: #2275de } 
		.s103 { fill: #69a2e1 } 
		.s104 { fill: #3d82d9 } 
		.s105 { fill: #619fe2 } 
		.s106 { fill: #4682d6 } 
		.s107 { fill: #0b5fce } 
		.s108 { fill: #0a61d0 } 
		.s109 { fill: #ffffff } 
	</style>
	<path class="s0" d="m205 5q0 0.98 0 2 0.77 0.12 1.56 0.25c3.48 1.07 6.31 2.89 9.44 4.75q0 0.98 0 2 0.86 0.38 1.75 0.76c5.48 3.01 10.59 8.59 13.25 14.24q0 0.98 0 2 0.99 0 2 0c8.48 17.68 14.33 36.17 20.04 54.89q1.33 4.3 2.71 8.57c4.99 15.99 7.83 32 10.25 48.54q0.6-1.32 1.21-2.68 0.86-1.88 1.73-3.76c0.46-1.01 0.46-1.01 0.93-2.04 2.03-4.35 4.23-8.56 6.59-12.74 12.67-22.76 13.68-47.03 6.98-72.09-1.62-5.52-3.81-10.59-6.44-15.69-0.71-1.99-1.4-3.98-2-6q-0.99 0-2 0c-0.8-0.93-0.8-0.93-1.62-1.87-3.2-2.87-6.1-3.9-10.38-4.13-2.85 0.65-5.36 1.75-8 3q-1.48 0.58-3 1.19-0.98 0.4-2 0.81-0.49-1.48-1-3-1.48-0.49-3-1 0.49-2.46 1-5 0.98 0 2 0 0-0.98 0-2 0.98 0 2 0 0-0.98 0-2 0.98 0 2 0 0.49-1.48 1-3c11.85-9.14 24.54-10.91 39-11 1.3-0.02 1.3-0.02 2.63-0.04 8.61 0.43 17.82 5.1 25.37 9.04q0 0.98 0 2 1.11 0.4 2.25 0.81c2.64 1.14 4.61 2.28 6.75 4.19q0 0.98 0 2 0.99 0 2 0c1.64 1.9 3.14 3.8 4.63 5.81q0.62 0.82 1.27 1.66c3.1 4.15 3.1 4.15 3.1 7.53q0.99 0 2 0c8.11 17.21 13.65 35.67 18.82 53.94q1.24 4.32 2.64 8.59c4.55 14.19 9.57 30.28 9.53 45.26-0.25 2.19-0.25 2.19 1.01 3.21q0.42-1.16 0.85-2.35c3.17-8.55 6.95-16.57 11.15-24.65q0.99 0 2 0 0.19-1.08 0.38-2.19c0.61-2.77 1.5-5.18 2.56-7.81 7.27-19.86 5.6-44.48-1.94-64q-1.48-2.51-3-5-0.48-1.22-0.98-2.48c-2.6-6.44-6.88-12.39-11.46-17.58-2.56-2.94-2.56-2.94-2.56-4.94q-0.77-0.34-1.56-0.69c-3.34-1.79-6.59-3.81-9.44-6.31q0-0.98 0-2-1.48-0.49-3-1 0-0.98 0-2c27.72 0 55.44 0 84 0 0 15.09 0 15.09-1.69 22.75q-0.26 1.26-0.54 2.56c-2.48 11.37-5.42 22.53-10.53 33.03-1.36 2.92-2.45 5.88-3.55 8.91-2.65 7.02-6.1 13.48-9.74 20.03q-1.99 3.63-3.95 7.28c-4.63 8.45-9.28 16.88-14.56 24.94-11.35 17.75-18.46 38.1-20.56 59.06-0.13 1.23-0.13 1.23-0.27 2.48q-0.31 2.98-0.61 5.96c-2.97 0-5.94 0-9 0q-0.06-1.14-0.11-2.31c-0.66-10.37-3.01-19-8.89-27.69q-0.99-0.49-2-1 0-0.98 0-2-1.08-0.4-2.19-0.81c-2.81-1.19-2.81-1.19-4.83-2.57-4.28-2.33-8.79-3.42-13.48-4.68q-2.8-0.77-5.59-1.54-1.23-0.33-2.49-0.67c-2.55-0.77-4.97-1.71-7.42-2.73q0-0.98 0-2-1.11-0.37-2.25-0.75c-3-1.36-4.67-2.71-6.75-5.25q0-1.48 0-3-0.99 0-2 0-1.44-4.28-2.87-8.56-0.41-1.2-0.82-2.43c-1.56-4.64-3-9.29-4.31-14.01-2.45 2.28-4.28 4.71-6.12 7.5-0.78 1.16-0.78 1.16-1.58 2.34-1.44 2.21-1.44 2.21-2.3 5.16q-0.99 0-2 0c-0.31 1.14-0.31 1.14-0.62 2.31-1.18 3.14-2.46 5.63-4.13 8.5-9.63 17.31-12.53 36.85-15.25 56.19-6.15 0.1-6.15 0.1-8 0-1.72-1.72-1.37-4.01-1.59-6.32-1.03-10.26-3.15-18.04-10.41-25.68q-0.98-0.49-2-1 0-0.98 0-2-0.78-0.18-1.59-0.37c-5.01-1.31-9.88-3.09-14.77-4.76q-2.01-0.68-4.02-1.35-2.92-0.98-5.83-1.98-1.73-0.58-3.51-1.18c-3.46-1.44-6.3-3.09-9.28-5.36q0-0.98 0-2-0.99 0-2 0c-3.46-5.54-5.73-10.76-7.23-17.13-0.75-3-0.75-3-2.11-6.3-2.38-6.2-3.88-12.66-5.54-19.07-2.74-10.62-5.84-21.01-9.12-31.5-0.33 41.58-0.66 83.16-1 126-20.46 0-40.92 0-62 0 0-22.01 1.8-36.04 15-53q0.99-1.33 2-2.7c3.53-4.69 3.53-4.69 5-6.3q0.99 0 2 0 0.99-2.46 2-5 0.99 0 2 0 0.49-1.97 1-4 0.99 0 2 0 0.39-1.29 0.79-2.62c1.22-3.42 2.76-6.26 4.58-9.38 3.73-6.79 5.76-13.52 7.63-21q0.81-2.81 1.62-5.62c2.32-8.6 3.43-17.37 4.5-26.19q0.14-1.06 0.27-2.14c0.51-4.39 0.69-8.64 0.61-13.05-2.71 7.71-5.15 15.4-7.19 23.32-4.1 15.77-9.43 29.77-23.11 39.68-1.7 1-1.7 1-3.7 1q0 0.99 0 2-3.9 2.26-7.81 4.5c-1.11 0.64-1.11 0.64-2.24 1.3q-1.06 0.61-2.16 1.23-0.97 0.56-1.98 1.14c-1.81 0.83-1.81 0.83-4.81 0.83q0 0.99 0 2-1.54 0.83-3.13 1.69c-4.07 2.32-8.72 5.02-10.87 9.31q-0.99 0-2 0-0.2 0.86-0.41 1.75c-0.57 2.16-1.27 4.21-2.03 6.31-1.77 5.22-2.7 10.51-3.56 15.94-2.64 0-5.28 0-8 0q-0.15-1.12-0.3-2.27c-1.63-11.17-4.32-19.83-12.7-27.73q-0.98-0.49-2-1 0-0.98 0-2c-0.85-0.16-0.85-0.16-1.71-0.33-2.62-0.77-4.54-1.91-6.85-3.36-3.61-2.22-7.25-4.28-11-6.25-8.38-4.55-15.85-10.24-21.44-18.06q0-0.98 0-2-0.98 0-2 0c-3.2-6-5.45-11.94-7.44-18.44q-0.44-1.42-0.9-2.89-3.19-10.25-6.15-20.57c-1.03-3.63-1.03-3.63-2.51-7.1 0.6 9.4 1.62 18.68 3 28q0.13 0.98 0.27 2c2.11 15.35 6.48 30.58 14.57 43.91 1.13 2.04 1.71 3.8 2.16 6.09q0.98 0 2 0 0.49 1.97 1 4 0.98 0 2 0 0.98 2.46 2 5 0.98 0 2 0 0 0.99 0 2 0.98 0 2 0 1.52 2.49 3 5 0.89 0.86 1.81 1.75c14.47 14.88 15.19 33.28 15.19 53.25-20.13 0-40.26 0-61 0 0-61.71 0-123.42 0-187 22.45 0 22.45 0 29.44 0.75q1.24 0.13 2.51 0.27c12.9 1.52 24.41 5.94 33.05 15.98q0 0.99 0 2 0.98 0 2 0c4.73 8.85 8.69 17.22 11.21 26.97 0.64 2.44 1.35 4.69 2.29 7.03 2.31 5.84 3.82 11.96 5.5 18 0.55 1.82 0.55 1.82 1.12 3.68 0.88 3.32 0.88 3.32 0.88 7.32q0.98 0 2 0 0.18-1.48 0.36-3c0.59-4.13 1.68-8.02 2.89-12 0.33-1.11 0.33-1.11 0.67-2.24 1.84-6.11 3.84-12.16 5.9-18.2 1.13-3.41 2.13-6.85 3.12-10.31 1.88-6.24 4.71-11.68 8.06-17.25q0.98 0 2 0 0.4-0.89 0.81-1.82c3.63-6.67 11.37-10.48 18.19-13.18 5.64-1.61 11.11-2.5 16.94-3.06q1.23-0.12 2.5-0.25 3.78-0.36 7.56-0.69 1.11-0.1 2.26-0.2c15.03-1.27 29.57-1.67 43.74 4.2z"/>
	<path class="s1" d="m288 67q0.49 0 1 0 0.04 6.37 0.06 12.75 0.02 1.77 0.03 3.6c0.02 6.77-0.23 13.4-0.97 20.14-0.12 2.46 0.01 4.21 0.88 6.51q0.99 0.49 2 1-0.49-1.48-1-3c2.97-0.5 2.97-0.5 6-1-1.76 4.97-4.39 9.43-7 14q-0.99 0-2 0c-0.31 1.14-0.31 1.14-0.63 2.31-1.21 3.26-2.6 5.99-4.31 9-2.69 4.81-4.5 9.42-6.06 14.69q-0.49 0-1 0c0-2.64 0-5.28 0-8q0.99 0 2 0c0-2.31 0-4.62 0-7-2.5 0.48-2.5 0.48-5 2-1.23 3.51-1.23 3.51-2 7-0.99 0.5-0.99 0.5-2 1 0.65-4.81 2.6-8.75 4.69-13.06q0.53-1.13 1.08-2.29c2.06-4.32 4.23-8.55 6.48-12.77 7.46-15.13 7.53-30.34 7.75-46.88z"/>
	<path class="s2" d="m394 88q0.49 0 1 0c1.03 5.28 0.8 9.22-0.44 14.44-0.43 1.85-0.43 1.85-0.87 3.74q-0.34 1.39-0.69 2.82-0.99 0-2 0 0.49 1.48 1 3 1.48-0.98 3-2c3.19-0.12 3.19-0.12 6 0-1.34 3.67-3.01 6.7-5.19 9.94-3.58 5.51-6.47 11.19-9.33 17.09-1.48 2.97-1.48 2.97-3.48 5.97-0.19-4.84 0.25-8.48 2-13q0.49-1.48 1-3-0.99-0.49-2-1 0 1.97 0 4-0.99 0-2 0c-1.04 4.62-1.04 4.62 0 9-1.49 0.5-1.49 0.5-3 1q-0.49 0.98-1 2-0.99 0-2 0-0.18 1.11-0.37 2.25c-0.58 2.55-1.37 4.48-2.63 6.75q-0.99 0-2 0c0-2.64 0-5.28 0-8q0.99 0.49 2 1 0.42-1.16 0.85-2.35c3.17-8.55 6.95-16.57 11.15-24.65q0.99 0 2 0c0.19-1.08 0.19-1.08 0.38-2.19 0.61-2.77 1.5-5.18 2.56-7.81 2.33-6.21 3.27-12.44 4.06-19z"/>
	<path class="s3" d="m383 143q-0.62 2.53-1.25 5.06-0.41 1.65-0.82 3.34-0.92 3.57-1.95 7.1c-2.82 9.8-4.1 19.36-4.98 29.5-2.97 0-5.94 0-9 0q-0.06-1.14-0.11-2.31c-0.66-10.37-3.01-19-8.89-27.69q-0.99-0.49-2-1 0-0.99 0-2c-2.48-0.99-2.48-0.99-5-2q1.97-0.49 4-1 0 0.99 0 2 1.35 0.25 2.75 0.5c4.04 1.87 4.79 3.62 6.59 7.53 0.66 1.97 0.66 1.97 0.66 4.97q0.99 0 2 0 0.49 1.97 1 4 0.62-0.77 1.25-1.56 0.86-0.71 1.75-1.44c2.19 0.31 2.19 0.31 4 1q0-1.48 0-3 0.99 0 2 0c0.33-3.3 0.66-6.6 1-10q0.49 0 1 0 0.06-1.15 0.11-2.34 0.1-1.49 0.2-3.03 0.09-1.49 0.18-3.03 0.25-1.28 0.51-2.6c3-2 3-2 5-2z"/>
	<path class="s4" d="m356 1c27.72 0 55.44 0 84 0 0 14.63 0 14.63-1.5 21.31q-0.42 1.91-0.84 3.87-0.33 1.39-0.66 2.82-0.49 0-1 0 0.21-5.94 0.44-11.87 0.06-1.69 0.12-3.42 0.06-1.61 0.12-3.26 0.06-1.49 0.11-3.02c0.21-2.43 0.21-2.43 1.21-4.43-24.75 0.33-49.5 0.66-75 1 2.36 0 4.73-0.06 7.09-0.1 1.91 0.1 1.91 0.1 3.91 1.1q0 0.98 0 2-2.95 0-6 0 0.49 2.46 1 5 1.48 0.49 3 1-0.99 0.98-2 2 0-0.98 0-2-0.77-0.34-1.56-0.69c-3.34-1.79-6.59-3.81-9.44-6.31q0-0.98 0-2-1.48-0.49-3-1 0-0.98 0-2z"/>
	<path class="s5" d="m179 54q0.99 0 2 0 0.49 0.98 1 2 1.48 0.98 3 2-0.49 0.98-1 2c-0.17 3.04-0.17 3.04 0 6q0.49 0.49 1 1 0.1 2.28 0.06 4.56-0.01 1.24-0.02 2.51-0.02 0.95-0.04 1.93-0.49 0-1 0c-1.32-4.62-2.64-9.24-4-14-0.33 41.58-0.66 83.16-1 126q-1.97-0.49-4-1 0.99 0 2 0 0.01-1.01 0.01-2.06 0.16-24.76 0.33-49.52 0.08-11.97 0.16-23.95 0.06-10.43 0.14-20.86 0.04-5.53 0.07-11.06 0.04-6.16 0.08-12.32 0.01-1.84 0.02-3.73 0.02-1.66 0.03-3.37c0.01-1.46 0.01-1.46 0.02-2.95 0.14-2.18 0.14-2.18 1.14-3.18z"/>
	<path class="s6" d="m284 109c1.28 2.11 2.02 3.5 1.94 6-1.36 2.89-3.34 4.22-5.94 6q-0.99 0-2 0c0 2.64 0 5.28 0 8q1.48 0.49 3 1 0-1.48 0-3 0.99 0 2 0 0-2.95 0-6 2.46-0.49 5-1 0-1.48 0-3 0.99 0.49 2 1-0.49 1.48-1 3-0.99 0-2 0c-0.31 1.14-0.31 1.14-0.62 2.31-1.22 3.26-2.61 5.99-4.32 9-2.69 4.81-4.5 9.42-6.06 14.69q-0.49 0-1 0c0-2.64 0-5.28 0-8q0.99 0 2 0c0-2.31 0-4.62 0-7-2.5 0.48-2.5 0.48-5 2-1.23 3.51-1.23 3.51-2 7-0.99 0.5-0.99 0.5-2 1 0.65-4.86 2.64-8.88 4.75-13.25q0.53-1.12 1.09-2.28c2.53-5.27 5.22-10.41 8.16-15.47q0.99 0 2 0 0-0.98 0-2z"/>
	<path class="s7" d="m394 88q0.49 0 1 0c1.03 5.28 0.8 9.22-0.44 14.44q-0.43 1.84-0.87 3.74-0.34 1.39-0.69 2.82-0.99 0-2 0 0.49 1.48 1 3 1.48-0.98 3-2c3.19-0.12 3.19-0.12 6 0-1.41 3.85-3.21 7.12-5.44 10.56q-0.89 1.39-1.81 2.82c-1.51 2.27-3.09 4.46-4.75 6.62q0-2.96 0-6-1.48 0-3 0c0.5-0.93 0.5-0.93 1-1.88 1.14-2.03 1.14-2.03 1-4.12q-1.48 0.49-3 1 0-0.98 0-2 0.99 0 2 0 0.19-1.08 0.38-2.19c0.61-2.77 1.5-5.18 2.56-7.81 2.33-6.21 3.27-12.44 4.06-19z"/>
	<path class="s8" d="m291.75 0.31q1.08 0.05 2.19 0.11c4.31 0.27 8.03 1.03 12.06 2.58q0 0.49 0 1c-1.58 0.22-1.58 0.22-3.19 0.44-2.96 0.44-5.88 0.94-8.81 1.56q-0.99-1.48-2-3c-2.84-0.28-5.42-0.37-8.25-0.31q-1.12-0.01-2.28-0.01c-4.5 0.04-8.28 0.48-12.47 2.32q-0.49 0.98-1 2c-3.79 2.67-7.54 3.84-12 5-3.12 0.65-3.12 0.65-4 3q-1.48-0.49-3-1 0.98 0 2 0 0.49-1.48 1-3c11.98-9.24 25.12-11.42 39.75-10.69z"/>
	<path class="s9" d="m383 143q-0.62 2.53-1.25 5.06-0.41 1.65-0.82 3.34-0.92 3.57-1.95 7.1c-2.82 9.8-4.1 19.36-4.98 29.5-2.97 0-5.94 0-9 0 0-3.3 0-6.6 0-10q0.49 0 1 0c0 2.64 0 5.28 0 8 2.31 0 4.62 0 7 0 0-6.6 0-13.2 0-20q0.99 0 2 0c0.33-3.3 0.66-6.6 1-10q0.49 0 1 0 0.06-1.15 0.11-2.34 0.1-1.49 0.2-3.03 0.09-1.49 0.18-3.03 0.25-1.28 0.51-2.6c3-2 3-2 5-2z"/>
	<path class="s10" d="m98 125q0.49 1.48 1 3-0.66 1.07-1.33 2.17c-2.14 3.63-2.68 7.02-3.36 11.14q-0.19 1.11-0.39 2.25-0.47 2.72-0.92 5.44c-2.64 0-5.28 0-8 0q-0.16-1.12-0.33-2.27c-1.05-6.79-2.51-13.22-4.67-19.73q0.98 0 2 0 0 1.48 0 3 1.48 0 3 0c0 2.31 0 4.62 0 7q1.48 0.49 3 1c-0.33 2.97-0.66 5.94-1 9q2.46 0 5 0c0-5.61 0-11.22 0-17q1.48 0 3 0 0-1.48 0-3 1.48 0 3 0 0-0.98 0-2z"/>
	<path class="s11" d="m10 32q0.49 0.98 1 2 0.98 0 2 0 0.22 1.69 0.44 3.44c0.17 3.37 0.17 3.37 1.56 4.56q0.06 3.5 0 7c2.48 0.99 2.48 0.99 5 2q-0.03 1.82-0.06 3.69c-0.01 3.23 0.27 6.16 1.06 9.31q0.98 0 2 0c0 2.64 0 5.28 0 8q-0.98 0-2 0-0.25-0.89-0.5-1.8-1.15-4.1-2.31-8.2-0.39-1.39-0.79-2.83c-1.56-5.51-3.31-10.84-5.4-16.17-1.44-3.87-2.24-6.86-2-11z"/>
	<path class="s12" d="m384 120q0.49 0.98 1 2-0.91 2.66-2 5.25c-1.66 4.33-2.48 7.18-1 11.75q-1.48 0.49-3 1-0.49 0.99-1 2-0.99 0-2 0-0.18 1.11-0.38 2.25c-0.57 2.55-1.36 4.48-2.62 6.75q-0.99 0-2 0c0-2.64 0-5.28 0-8q0.99 0.49 2 1 0.43-1.21 0.88-2.46c2.8-7.57 6.05-14.57 10.12-21.54z"/>
	<path class="s13" d="m247 16q0.49 1.48 1 3 0.99 0.49 2 1 0 0.98 0 2 2.46 0 5 0 0-0.98 0-2 3.16-0.04 6.31-0.06 1.75-0.02 3.55-0.04c3.14 0.1 3.14 0.1 6.14 1.1q0 1.48 0 3-0.94-0.27-1.91-0.54c-6.43-1.6-10.19-1.38-16.09 1.54q-1.48 0.58-3 1.19-0.99 0.4-2 0.81-0.49-1.48-1-3-1.48-0.49-3-1 0.49-2.46 1-5 0.99 0 2 0 0-0.98 0-2z"/>
	<path class="s14" d="m137 5c-0.99 1.49-0.99 1.49-2 3-2.63 0.19-2.63 0.19-5 0q0.28 0.95 0.56 1.94 0.22 1.01 0.44 2.06c-1 1-1 1-4.81 1.38-3.5 0.39-5.67 1-8.19 3.62q0 0.98 0 2-2.46 0.49-5 1c3.23-7.21 9.76-10.66 16.57-14.12 2.64-0.96 4.65-1.05 7.43-0.88z"/>
	<path class="s15" d="m193 90q0.99 0.49 2 1c-0.33 2.31-0.66 4.62-1 7q0.99 0.49 2 1c-0.33 2.64-0.66 5.28-1 8q0.99 0 2 0 0.18 1.69 0.38 3.44c0.3 1.76 0.3 1.76 0.62 3.56q0.99 0.49 2 1 0 0.98 0 2-0.99 0-2 0-0.49 1.97-1 4-1.19-4.22-2.38-8.44-0.33-1.17-0.67-2.37c-1.5-5.37-2.78-10.74-3.95-16.19q1.48 0 3 0 0-1.97 0-4z"/>
	<path class="s16" d="m70 27c5.99 7.09 9.86 19.8 11 29-0.93 2.3-0.93 2.3-2 4q-0.37-1.66-0.75-3.38c-1.05-4.26-2.62-8.2-4.35-12.23-0.9-2.39-0.9-2.39-1.4-5.13q-0.24-1.11-0.5-2.26-0.98-0.49-2-1c0-2.97 0-5.94 0-9z"/>
	<path class="s17" d="m384 33q0.99 0 2 0c0.19 0.96 0.19 0.96 0.38 1.94 0.3 1.02 0.3 1.02 0.62 2.06q0.99 0.49 2 1 0.5 2.5 1 5 0.99 0.49 2 1-0.49 1.48-1 3 0.99 0 2 0-0.06 1.05-0.13 2.13c-0.02 2.88-0.02 2.88 1.13 5.43 1.49 5.12 1.15 10.15 1 15.44q-0.49 0-1 0-0.15-1.28-0.3-2.61c-1.31-10.4-3.15-20.34-8.7-29.39-0.69-2.81-0.69-2.81-1-5z"/>
	<path class="s18" d="m350 59c4.92 7.38 6.61 16.26 7 25q-0.99 0-2 0c-0.33-2.31-0.66-4.62-1-7q-1.97 0.49-4 1-0.49-2.46-1-5 0.99 0 2 0c-0.33-4.62-0.66-9.24-1-14z"/>
	<path class="s19" d="m179 54q0.99 0 2 0 0.49 0.98 1 2 1.48 0.98 3 2-0.49 0.98-1 2c-0.17 3.04-0.17 3.04 0 6q0.49 0.49 1 1 0.1 2.28 0.06 4.56-0.01 1.24-0.02 2.51-0.02 0.95-0.04 1.93-0.49 0-1 0c-1.32-4.62-2.64-9.24-4-14-0.33 3.3-0.66 6.6-1 10q-0.49 0-1 0-0.04-4.22-0.06-8.44-0.02-1.2-0.03-2.43 0-3.07 0.09-6.13 0.49-0.49 1-1z"/>
	<path class="s20" d="m269 159q0.99 0.49 2 1c-1.32 9.24-2.64 18.48-4 28q-2.95 0-6 0 1.97-0.99 4-2-0.12-1.94-0.25-3.94c-0.05-7.9 2.28-15.47 4.25-23.06z"/>
	<path class="s21" d="m361 3q0.99 0.49 2 1c2.36 0 4.73-0.06 7.09-0.1 1.91 0.1 1.91 0.1 3.91 1.1q0 0.98 0 2-2.95 0-6 0 0.49 2.46 1 5 1.48 0.49 3 1-0.99 0.98-2 2 0-0.98 0-2-0.77-0.34-1.56-0.69c-3.36-1.81-6.37-4.05-9.44-6.31 1-2 1-2 2-3z"/>
	<path class="s22" d="m259 177q2.95 0 6 0c0.33 3.3 0.66 6.6 1 10-2.31 0.33-4.62 0.66-7 1 0-3.63 0-7.26 0-11z"/>
	<path class="s23" d="m120 156q0.49 0 1 0c0.13 7.53 0.13 7.53-0.5 9.87-0.87 3.71-0.68 7.46-0.69 11.26q-0.02 1.22-0.03 2.49c-0.01 2.13 0.1 4.26 0.22 6.38q0.98 0.99 2 2-2.46 0-5 0c-0.34-11.17 0.07-21.13 3-32z"/>
	<path class="s24" d="m394 88q0.49 0 1 0c1.03 5.28 0.8 9.22-0.44 14.44q-0.43 1.84-0.87 3.74-0.34 1.39-0.69 2.82-0.99 0-2 0 0.15 1.08 0.31 2.19c-0.43 3.93-2.41 5.27-5.31 7.81q-0.49-0.98-1-2 0.99 0 2 0 0.19-1.08 0.38-2.19c0.61-2.77 1.5-5.18 2.56-7.81 2.33-6.21 3.27-12.44 4.06-19z"/>
	<path class="s25" d="m286.7-0.05q2.28 0.14 4.55 0.3 1.12 0.06 2.28 0.12c4.45 0.29 8.27 1 12.47 2.63q0 0.49 0 1c-1.58 0.22-1.58 0.22-3.19 0.44-2.96 0.44-5.88 0.94-8.81 1.56q-0.99-1.48-2-3c-2.66-0.58-2.66-0.58-5.62-0.69q-1.5-0.1-3.04-0.2-1.15-0.05-2.34-0.11c2-2 2-2 5.7-2.05z"/>
	<path class="s26" d="m313 137q2.47 0.64 4.94 1.31c1.37 0.37 1.37 0.37 2.77 0.74q1.13 0.47 2.29 0.95 0.49 1.48 1 3c1.19 0.04 1.19 0.04 2.41 0.08 6.41 0.34 10.67 0.68 15.59 4.92-4.09 1.36-6.95-0.01-10.88-1.31q-1.05-0.34-2.14-0.69c-3.72-1.2-7.37-2.49-10.98-4q0-0.99 0-2c-2.48-0.99-2.48-0.99-5-2q0-0.49 0-1z"/>
	<path class="s27" d="m349 152q1.97 0 4 0 0 0.99 0 2 1.35 0.25 2.75 0.5c4.04 1.87 4.79 3.62 6.59 7.53 0.66 1.97 0.66 1.97 0.66 4.97q0.99 0 2 0 0 2.95 0 6-0.99 0-2 0-0.25-0.87-0.52-1.76c-1.56-5.04-3.24-9.06-6.48-13.24q-0.99-0.49-2-1 0-0.99 0-2c-2.48-0.99-2.48-0.99-5-2q0-0.49 0-1z"/>
	<path class="s28" d="m307 4c8.57 3.14 8.57 3.14 12 5q0 0.98 0 2 1.2 0.43 2.44 0.88c2.56 1.12 2.56 1.12 3.56 3.12-2.48-0.5-2.48-0.5-5-1q0-0.98 0-2-2.95 0.49-6 1 0-0.98 0-2-0.95-0.15-1.94-0.31-1.01-0.34-2.06-0.69-0.49-1.48-1-3-0.99-0.49-2-1 0-0.98 0-2z"/>
	<path class="s29" d="m80 127q0.98 0 2 0 0 1.48 0 3 1.48 0 3 0c0 2.31 0 4.62 0 7q1.48 0.49 3 1c-0.33 2.97-0.66 5.94-1 9q2.46 0 5 0 0 0.49 0 1c-2.31 0-4.62 0-7 0q-0.16-1.01-0.33-2.05c-1.11-6.5-2.63-12.69-4.67-18.95z"/>
	<path class="s30" d="m130 100q2.95 0 6 0c-0.99 0.5-0.99 0.5-2 1q0 0.98 0 2-3.18 1.76-6.38 3.5-0.9 0.5-1.82 1.01c-4.57 2.49-4.57 2.49-6.8 2.49q0.49-2.46 1-5 1.91-0.12 3.88-0.25c2.17-0.21 2.17-0.21 4.12-0.75 1.59-1.92 1.59-1.92 2-4z"/>
	<path class="s31" d="m21 99c2.26 2.86 4 5.73 5.63 9q0.63 1.26 1.28 2.56c0.97 2.16 1.61 4.14 2.09 6.44q0.98 0 2 0-0.49 0.98-1 2-0.98 0-2 0c-0.12-0.93-0.12-0.93-0.25-1.88-0.99-2.8-2.15-2.86-4.75-4.12-1.25-2.13-1.25-2.13-2-4q0.49-0.49 1-1-0.98-0.49-2-1c0-2.64 0-5.28 0-8z"/>
	<path class="s32" d="m305 112c2.68 4.02 2.16 6.24 2 11q0.99 0 2 0c0 2.64 0 5.28 0 8q-0.99 0-2 0-1.05-2.87-2.06-5.75-0.57-1.59-1.16-3.23c-0.78-3.01-0.86-4.19 0.22-7.02q0.49-1.48 1-3z"/>
	<path class="s33" d="m105 112q0.49 0.98 1 2c2.53 0.66 2.53 0.66 5 1q-2.5 2.5-5 5-1.32 1.39-2.69 2.81c-2.31 2.19-2.31 2.19-4.31 2.19q-0.49-1.97-1-4 2.46-0.49 5-1c0.22-1.42 0.22-1.42 0.44-2.88 0.56-3.12 0.56-3.12 1.56-5.12z"/>
	<path class="s34" d="m411 89q0.99 0.49 2 1-5.45 10.03-11 20-0.49 0-1 0 0-2.46 0-5 0.99 0 2 0 0-1.48 0-3 0.99 0 2 0c0.33-2.31 0.66-4.62 1-7q0.99 0 2 0 0.46-0.92 0.94-1.88 1.03-2.06 2.06-4.12z"/>
	<path class="s35" d="m142 123c0.66 1.75 0.66 1.75 1 4-2.84 5.87-7.26 9.24-13 12 1.48-3.24 3.33-5.93 5.5-8.75 0.91-1.2 0.91-1.2 1.84-2.42q0.82-0.9 1.66-1.83 0.99 0 2 0 0.49-1.48 1-3z"/>
	<path class="s36" d="m288 117q0.99 0.49 2 1-0.49 1.48-1 3-0.99 0-2 0-0.34 1.17-0.69 2.38c-1.72 4.74-3.99 9.14-6.31 13.62q-0.49 0-1 0 0-2.46 0-5 0.99 0 2 0 0-2.46 0-5 0.99 0 2 0 0-2.95 0-6 2.46-0.49 5-1 0-1.48 0-3z"/>
	<path class="s37" d="m283 120c0 2.31 0 4.62 0 7q-0.99 0-2 0 0 1.48 0 3-1.97-0.49-4-1c0.59-6.15 0.59-6.15 1-8 2-1 2-1 5-1z"/>
	<path class="s38" d="m341 36c3.19 1.6 3.37 4.4 4.5 7.69q0.63 1.82 1.28 3.7 0.6 1.78 1.22 3.61 0.57 1.64 1.16 3.33c0.84 2.67 0.84 2.67 0.84 4.67q-0.99 0-2 0 0-2.95 0-6-1.48-0.49-3-1 0-2.46 0-5-0.99 0-2 0c-0.66-3.63-1.32-7.26-2-11z"/>
	<path class="s39" d="m217 15c3.16 1.4 5.32 3.05 7.75 5.5 0.92 0.91 0.92 0.91 1.86 1.84 1.39 1.66 1.39 1.66 1.39 3.66q-1.48 0-3 0-0.49-0.98-1-2-1.48 0.49-3 1 0-2.95 0-6-2.46-0.49-5-1 0.49-1.48 1-3z"/>
	<path class="s40" d="m376 17q0.49 1.48 1 3 1.48 0 3 0c0.33 2.31 0.66 4.62 1 7q1.48 0.49 3 1 0 2.46 0 5c-2.44-2.29-4.32-4.73-6.19-7.5q-0.79-1.15-1.6-2.34c-1.21-2.16-1.21-2.16-1.21-5.16q0.49-0.49 1-1z"/>
	<path class="s41" d="m9 44q0.49 0 1 0c0.84 4.35 1.11 8.44 1.06 12.88q-0.01 1.71-0.02 3.49-0.02 1.29-0.04 2.63-0.98 0-2 0-0.58-3.34-1.13-6.69-0.31-1.85-0.63-3.76c-0.24-3.59 0.13-5.4 1.76-8.55z"/>
	<path class="s42" d="m251 159c1.98 0.99 1.98 0.99 4 2q0 0.99 0 2 0.99 0 2 0 0 2.95 0 6 0.99 0 2 0c0 2.31 0 4.62 0 7q-0.99 0-2 0-0.27-1.12-0.55-2.27c-0.38-1.47-0.38-1.47-0.76-2.98q-0.37-1.45-0.74-2.95c-0.95-2.8-2.14-4.51-3.95-6.8q0-0.99 0-2z"/>
	<path class="s43" d="m55 150q0.46 0.95 0.94 1.94c0.89 2 0.89 2 2.06 3.06q0.1 2.28 0.06 4.56-0.01 1.24-0.02 2.51c-0.02 0.95-0.02 0.95-0.04 1.93-2.97-0.5-2.97-0.5-6-1q0.46-0.99 0.94-2c1.31-3.7 1.66-7.09 2.06-11z"/>
	<path class="s44" d="m255 20q3.16-0.04 6.31-0.06 1.75-0.02 3.55-0.04c3.14 0.1 3.14 0.1 6.14 1.1q0 1.48 0 3-0.94-0.25-1.91-0.51c-6.13-1.46-10.1-1.49-16.09 0.51q0.99-1.97 2-4z"/>
	<path class="s45" d="m255 96c2.38 3.56 3.16 7.08 4.13 11.19 0.27 1.12 0.27 1.12 0.55 2.27q0.66 2.77 1.32 5.54-0.99 0-2 0c-2.27-3.41-2.84-6.07-3.69-10.06q-0.4-1.87-0.82-3.79c-0.49-3.15-0.49-3.15 0.51-5.15z"/>
	<path class="s46" d="m186 75c3.91 3.91 4.13 10.21 4.13 15.56q-0.07 1.7-0.13 3.44c-2.06-3.57-2.84-7.18-3.69-11.19-0.41-1.88-0.41-1.88-0.82-3.79q-0.24-1.49-0.49-3.02 0.49-0.49 1-1z"/>
	<path class="s47" d="m367 120q0.99 0 2 0c0.99 5.94 1.98 11.88 3 18q-0.99 0.49-2 1c0-2.31 0-4.62 0-7q-1.48-0.49-3-1c0-3.63 0-7.26 0-11z"/>
	<path class="s48" d="m86 75c1.76 3.09 2 4.23 2 8q0.98 0 2 0 0.49-1.97 1-4c0 2.64 0 5.28 0 8-3 0-3 0-4.75-1.5-1.88-3.76-1-6.41-0.25-10.5z"/>
	<path class="s49" d="m158 60q0.99 0 2 0c-0.64 4.45-1.71 8.59-3.06 12.88q-0.54 1.71-1.1 3.49-0.41 1.29-0.84 2.63-0.49 0-1 0 0-2.95 0-6 0.99 0 2 0-0.06-1.54-0.12-3.13c0.12-3.74 0.77-6.41 2.12-9.87z"/>
	<path class="s50" d="m236 39c3.78 5.67 6.28 12.21 7 19q-1.48-0.98-3-2c-0.19-3.13-0.19-3.13 0-6q-0.99 0-2 0c-1.8-3.83-2.2-6.78-2-11z"/>
	<path class="s51" d="m81 58q0.49 0 1 0 1.01 3.4 2 6.81 0.55 1.89 1.13 3.83c0.87 3.36 0.87 3.36 0.87 6.36q-1.48 0-3 0c-1.51-5.81-2.22-11-2-17z"/>
	<path class="s52" d="m432 38q0.99 0 2 0c-1.24 6.17-2.9 12.07-5 18q-0.49 0-1 0c0.35-6.63 0.96-12.05 4-18z"/>
	<path class="s53" d="m10 32q0.49 0.98 1 2 0.98 0 2 0 0.22 1.69 0.44 3.44c0.17 3.37 0.17 3.37 1.56 4.56q0.34 2.27 0.56 4.56 0.13 1.24 0.26 2.51c0.09 0.95 0.09 0.95 0.18 1.93-2-1-2-1-3.07-3.77q-0.52-1.71-1.06-3.48-0.52-1.7-1.07-3.45c-0.71-2.94-0.97-5.3-0.8-8.3z"/>
	<path class="s54" d="m162 82q0.49 0 1 0 0.08 2.12 0.13 4.25 0.03 1.18 0.07 2.39c-0.22 2.63-0.74 4.17-2.2 6.36q-1.48 0.49-3 1c0.99-4.84 1.96-9.48 4-14z"/>
	<path class="s55" d="m26 78c2 3 2 3 2 6q1.48 0 3 0 0.18 1.45 0.38 2.94c0.3 1.51 0.3 1.51 0.62 3.06q0.98 0.49 2 1-1.48 0-3 0-0.98-2.46-2-5-0.98 0-2 0c-1.43-2.35-2.09-3.48-1.63-6.25q0.31-0.86 0.63-1.75z"/>
	<path class="s56" d="m168 44q0.49 0 1 0 0.08 4.91 0.13 9.81 0.02 1.39 0.05 2.82 0.01 1.33 0.02 2.7 0.01 1.23 0.03 2.49c-0.23 2.18-0.23 2.18-2.23 5.18-1.19-5.21-0.77-9.66-0.06-14.88q0.15-1.16 0.3-2.37 0.37-2.88 0.76-5.75z"/>
	<path class="s57" d="m233 148c6.63-0.13 6.63-0.13 10 1q0 1.48 0 3 1.97 0 4 0 0 1.48 0 3-0.99 0-2 0 0-0.99 0-2-0.85-0.2-1.73-0.4c-2.25-0.59-4.36-1.33-6.52-2.16q-1.05-0.4-2.14-0.82-0.79-0.3-1.61-0.62 0-0.49 0-1z"/>
	<path class="s58" d="m416 73q1.48 0 3 0c1.02 2.65 1.13 3.69 0 6.36q-0.71 1.18-1.44 2.39c-0.71 1.2-0.71 1.2-1.43 2.42q-0.56 0.9-1.13 1.83c-0.93-3.01-1.04-3.87 0-7q0.99 0 2 0-0.49-2.95-1-6z"/>
	<path class="s59" d="m76 43c2.4 2.4 2.83 4.13 3.75 7.38q0.42 1.42 0.86 2.89c0.44 3.05 0.05 4.2-1.61 6.73q-0.71-2.84-1.42-5.69-0.58-2.3-1.19-4.59-0.75-2.85-1.39-5.72 0.49-0.49 1-1z"/>
	<path class="s60" d="m126 143c1.6 4 0.29 7.05-1 11q-0.98 0-2 0 0 0.99 0 2-0.98 0-2 0c1.22-4.69 2.7-8.71 5-13z"/>
	<path class="s61" d="m350 59c2 3.01 3.03 5.59 4.19 9q0.54 1.57 1.1 3.19c0.71 2.81 0.71 2.81-0.29 5.81-3.5-6.09-4.71-11-5-18z"/>
	<path class="s62" d="m51 8c5.75 2.03 8.39 4.08 12 9-2.97-0.5-2.97-0.5-6-1q0-1.97 0-4c-1.98-0.66-3.96-1.32-6-2q0-0.98 0-2z"/>
	<path class="s63" d="m264 136q0.49 0 1 0c0.33 2.31 0.66 4.62 1 7q0.99-0.49 2-1c-0.33 2.64-0.66 5.28-1 8q-1.48 0.49-3 1c0-4.95 0-9.9 0-15z"/>
	<path class="s64" d="m137 135c-1.88 4.75-1.88 4.75-3 7q-2.46-0.49-5-1 0 0.99 0 2-0.99-0.49-2-1c6.76-7 6.76-7 10-7z"/>
	<path class="s65" d="m333 23c3.08 2.77 4.69 5.06 6 9-2.48-0.99-2.48-0.99-5-2q0 1.48 0 3-0.99 0-2 0c0.33-3.3 0.66-6.6 1-10z"/>
	<path class="s66" d="m165 65q0.49 0 1 0c1.11 6.68 1.27 10.99-2 17q-0.49 0-1 0 0.92-8.51 2-17z"/>
	<path class="s67" d="m273 128c1.27 3.53 0.76 5.33-0.81 8.69q-0.54 1.17-1.08 2.38c-1.11 1.93-1.11 1.93-3.11 2.93 0.65-5.07 2.85-9.42 5-14z"/>
	<path class="s68" d="m111 20c2 1 2 1 2.81 2.81 0.19 2.19 0.19 2.19-1.25 4.44q-0.77 0.86-1.56 1.75c-2-1-2-1-3-2 1.88-4.75 1.88-4.75 3-7z"/>
	<path class="s69" d="m80 119q0.98 0 2 0 0.49 1.48 1 3c-1.94 2.69-1.94 2.69-4 5-1.32-1.98-2.64-3.96-4-6q1.97 0.49 4 1 0.49-1.48 1-3z"/>
	<path class="s70" d="m130 100c3.19-0.31 3.19-0.31 6 0-0.99 0.5-0.99 0.5-2 1q0 0.98 0 2c-2.38 1.69-2.38 1.69-5 3q-0.99-0.49-2-1c1.13-2.5 1.13-2.5 3-5z"/>
	<path class="s71" d="m95 63c1.35 4.05 0.62 6.79 0 11q-0.98 0-2 0-0.49 2.46-1 5c-1.31-3.94-0.34-5.78 0.94-9.69q0.57-1.76 1.15-3.57 0.45-1.35 0.91-2.74z"/>
	<path class="s72" d="m296 107c-1.19 3.38-2.28 5.65-5 8q0-0.98 0-2-0.99-0.49-2-1 0.99 0 2 0-0.49-1.97-1-4c2.08-0.55 3.84-1 6-1z"/>
	<path class="s73" d="m423 63q0.99 0.49 2 1c-1.15 4.6-2.1 7.13-5 11 0.33-3.3 0.66-6.6 1-10q0.99 0 2 0 0-0.98 0-2z"/>
	<path class="s74" d="m383 143c-0.66 2.64-1.32 5.28-2 8q-0.99 0-2 0-0.49-2.95-1-6c3-2 3-2 5-2z"/>
	<path class="s75" d="m387 130q0.99 0.49 2 1c-2.48 5.94-2.48 5.94-5 12q-0.49 0-1 0 0-2.95 0-6 0.99 0 2 0 0-2.46 0-5 0.99 0 2 0 0-0.99 0-2z"/>
	<path class="s76" d="m120 156q0.49 0 1 0c0.17 4.92 0.25 8.5-2 13q-0.49 0-1 0 0.21-2.13 0.44-4.25 0.12-1.18 0.24-2.39c0.3-2.18 0.74-4.24 1.32-6.36z"/>
	<path class="s77" d="m277 133c1.62 2.5 2.07 3.59 1.54 6.58q-0.45 1.31-0.92 2.67-0.44 1.33-0.89 2.7-0.36 1.01-0.73 2.05-0.49 0-1 0c0-2.64 0-5.28 0-8q0.99 0 2 0 0-2.95 0-6z"/>
	<path class="s78" d="m16 84c1.9 2.85 2.46 4.42 3.13 7.69q0.25 1.2 0.5 2.45 0.18 0.91 0.37 1.86-1.48-0.49-3-1c-1.28-3.85-1.07-6.95-1-11z"/>
	<path class="s79" d="m190 86c3.88 1.75 3.88 1.75 5 4q-0.99 0-2 0 0 1.97 0 4-1.48 0-3 0c0-2.64 0-5.28 0-8z"/>
	<path class="s80" d="m281 41q0.49 0.98 1 2 1.48 0.49 3 1c0 3.3 0 6.6 0 10-1.6-3.2-2.43-5.35-3.13-8.75q-0.25-1.19-0.5-2.42-0.18-0.9-0.37-1.83z"/>
	<path class="s81" d="m279 117q0.49 1.97 1 4-0.99 0-2 0 0 2.46 0 5-0.99 0-2 0 0 0.98 0 2-0.99 0-2 0c1.45-3.79 3.15-7.39 5-11z"/>
	<path class="s82" d="m394 88q0.49 0 1 0c1.01 5.04 0.97 8.24-1 13q-0.49 0-1 0c0.33-4.29 0.66-8.58 1-13z"/>
	<path class="s83" d="m145 88q1.48 0 3 0c-1.27 3.91-2.51 5.79-6 8q0-2.46 0-5 1.97 0 4 0-0.49-1.48-1-3z"/>
	<path class="s84" d="m102 39q0.49 0 1 0c0.27 5.39 0.36 8.52-3 13-1.45-2.9-0.45-4.56 0.44-7.63q0.43-1.49 0.87-3.03 0.34-1.15 0.69-2.34z"/>
	<path class="s85" d="m275 29q1.97 0.49 4 1 0.29 3.08 0.59 6.15 0.2 0.91 0.41 1.85 0.99 0.49 2 1-1.48 0-3 0-0.31-0.83-0.62-1.68-0.4-1.08-0.82-2.2-0.4-1.07-0.81-2.17c-0.73-1.99-0.73-1.99-1.75-3.95z"/>
	<path class="s86" d="m247 16c1 3 1 3 0 6 0.99 1.49 0.99 1.49 2 3-0.99 0.5-0.99 0.5-2 1q0-0.98 0-2-1.48-0.49-3-1 0.49-2.46 1-5 0.99 0 2 0 0-0.98 0-2z"/>
	<path class="s87" d="m137 5c-2 3-2 3-4.16 3.51-1.22 0.09-1.22 0.09-2.46 0.18q-1.22 0.1-2.48 0.2-0.94 0.05-1.9 0.11c1-2 1-2 3.25-3.13 2.77-0.88 4.87-1.03 7.75-0.87z"/>
	<path class="s88" d="m32 119q0.49 0.98 1 2 0.98 0 2 0 0.98 2.46 2 5-2.46-0.49-5-1-0.57-2.49-1-5 0.49-0.49 1-1z"/>
	<path class="s89" d="m54 103q0.98 0.98 2 2-0.49 0.98-1 2 0.98 0 2 0-0.49 0.98-1 2c-1.98-0.99-3.96-1.98-6-3q0-0.98 0-2c1.88-0.63 1.88-0.63 4-1z"/>
	<path class="s90" d="m41 99c3.72-0.2 4.77-0.15 8 2q-0.49 1.48-1 3c-3.47-1.98-3.47-1.98-7-4q0-0.49 0-1z"/>
	<path class="s91" d="m16 49c1.98 0.99 1.98 0.99 4 2q-0.49 2.46-1 5-1.48 0-3 0c0-2.31 0-4.62 0-7z"/>
	<path class="s92" d="m277 24q2.46 0.49 5 1c-1.65 1.65-3.3 3.3-5 5q-1.48-1.48-3-3 0.99-0.49 2-1 0.99 0.49 2 1-0.49-1.48-1-3z"/>
	<path class="s93" d="m274 147c1.45 2.9 0.45 4.56-0.44 7.63q-0.43 1.49-0.87 3.03-0.34 1.15-0.69 2.34-0.49 0-1 0c-0.27-5.39-0.36-8.52 3-13z"/>
	<path class="s94" d="m41 130c3.74 2.66 5.65 4.58 7 9-3.54-1.68-4.79-2.49-6.31-6.19q-0.34-1.38-0.69-2.81z"/>
	<path class="s95" d="m156 99q0.49 0 1 0c0 2.31 0 4.62 0 7q-0.99 0-2 0-0.49 1.48-1 3c-1.39-4.18 0.18-6.13 2-10z"/>
	<path class="s96" d="m289 48q0.49 1.97 1 4-0.99 0-2 0-0.99 1.48-2 3c-1-1-1-1-1.06-3.56q0.03-1.2 0.06-2.44 1.97-0.49 4-1z"/>
	<path class="s97" d="m391 121q0.99 0 2 0c-0.53 3.82-1.5 6.06-4 9q0-2.96 0-6 0.99 0 2 0 0-1.48 0-3z"/>
	<path class="s98" d="m392 101q0.99 0 2 0c-0.33 2.64-0.66 5.28-1 8q-1.48 0-3 0c0.66-2.64 1.32-5.28 2-8z"/>
	<path class="s99" d="m153 76c0.69 1.63 0.69 1.63 1 4-1.44 3.25-1.44 3.25-3 6q-0.49 0-1 0c0.33-2.31 0.66-4.62 1-7q0.99 0 2 0 0-1.48 0-3z"/>
	<path class="s100" d="m203 5q0.99 0 2 0 0 0.98 0 2 0.89 0.18 1.81 0.38c2.19 0.62 2.19 0.62 5.19 2.62-2.64-0.33-5.28-0.66-8-1q-0.49-1.97-1-4z"/>
	<path class="s101" d="m209 139c2.64 0.33 5.28 0.66 8 1q0 1.48 0 3c-5.75-1.75-5.75-1.75-8-4z"/>
	<path class="s102" d="m205 129q1.48 0 3 0c-0.58 2.39-1.22 4.67-2 7q-0.99 0-2 0-0.49-1.48-1-3 0.99 0 2 0 0-1.97 0-4z"/>
	<path class="s103" d="m384 120q0.49 0.98 1 2-1.4 3.54-3 7-0.99 0-2 0c1.06-3.4 2.01-6.01 4-9z"/>
	<path class="s104" d="m21 99c2.62 3.06 3 3.73 3 8q-1.48 0-3 0c0-2.64 0-5.28 0-8z"/>
	<path class="s105" d="m182 66q1.48 0.49 3 1c0 2.97 0 5.94 0 9q-0.49 0-1 0c-0.66-3.3-1.32-6.6-2-10z"/>
	<path class="s106" d="m17 56q0.98 0 2 0c1.62 2.57 2.04 3.68 1.63 6.75q-0.31 1.11-0.63 2.25c-2.13-3.19-2.5-5.27-3-9z"/>
	<path class="s107" d="m280 34c1.98 0.99 1.98 0.99 4 2-0.33 2.31-0.66 4.62-1 7-1.65-2.97-2.44-5.66-3-9z"/>
	<path class="s108" d="m229 30q0.49 0.98 1 2 1.48 0.49 3 1-0.49 1.97-1 4-1.97-1.48-4-3 0.49-1.97 1-4z"/>
	<path class="s109" d=""/>
	<path class="s109" d=""/>
	<path class="s109" d=""/>
	<path class="s109" d=""/>
	<path class="s109" d=""/>
	<path class="s109" d=""/>
	<path class="s109" d=""/>
	<path class="s109" d=""/>
	<path class="s109" d=""/>
	<path class="s109" d=""/>
	<path class="s109" d=""/>
	<path class="s109" d=""/>
	<path class="s109" d=""/>
	<path class="s109" d=""/>
	<path class="s109" d=""/>
	<path class="s109" d=""/>
	<path class="s109" d=""/>
	<path class="s109" d=""/>
	<path class="s109" d=""/>
	<path class="s109" d=""/>
	<path class="s109" d=""/>
	<path class="s109" d=""/>
	<path class="s109" d=""/>
	<path class="s109" d=""/>
	<path class="s109" d=""/>
	<path class="s109" d=""/>
	<path class="s109" d=""/>
	<path class="s109" d=""/>
	<path class="s109" d=""/>
	<path class="s109" d=""/>
	<path class="s109" d=""/>
	<path class="s109" d=""/>
	<path class="s109" d=""/>
	<path class="s109" d=""/>
	<path class="s109" d=""/>
	<path class="s109" d=""/>
	<path class="s109" d=""/>
	<path class="s109" d=""/>
	<path class="s109" d=""/>
	<path class="s109" d=""/>
	<path class="s109" d=""/>
	<path class="s109" d=""/>
	<path class="s109" d=""/>
	<path class="s109" d=""/>
	<path class="s109" d=""/>
	<path class="s109" d=""/>
	<path class="s109" d=""/>
	<path class="s109" d=""/>
	<path class="s109" d=""/>
	<path class="s109" d=""/>
	<path class="s109" d=""/>
	<path class="s109" d=""/>
	<path class="s109" d=""/>
	<path class="s109" d=""/>
	<path class="s109" d=""/>
	<path class="s109" d=""/>
	<path class="s109" d=""/>
	<path class="s109" d=""/>
	<path class="s109" d=""/>
	<path class="s109" d=""/>
	<path class="s109" d=""/>
	<path class="s109" d=""/>
	<path class="s109" d=""/>
	<path class="s109" d=""/>
	<path class="s109" d=""/>
	<path class="s109" d=""/>
	<path class="s109" d=""/>
	<path class="s109" d=""/>
</svg>